<svg width="500" height="500" viewBox="0 0 500 500" fill="none" xmlns="http://www.w3.org/2000/svg">
<path d="M97.7562 419.942C181.838 463.867 318.163 463.868 402.245 419.943C486.328 376.016 486.328 304.8 402.245 260.874C318.162 216.948 181.838 216.948 97.7552 260.873C13.6732 304.799 13.6732 376.017 97.7562 419.942Z" fill="#F5F5F5"/>
<path d="M203.953 381.791C226.608 392.59 263.338 392.59 285.993 381.791C308.648 370.995 308.648 353.488 285.993 342.689C263.338 331.893 226.608 331.893 203.953 342.689C181.298 353.488 181.298 370.995 203.953 381.791Z" fill="#EBEBEB"/>
<path d="M400.164 355.06L319.193 401.81C317.997 402.5 316.059 402.5 314.863 401.81L213.578 343.334C212.382 342.644 212.382 341.524 213.578 340.834L294.552 294.084C295.748 293.394 297.686 293.394 298.882 294.084L400.164 352.56C401.359 353.251 401.359 354.37 400.164 355.06Z" fill="#EBEBEB"/>
<path d="M422.701 98.073V119.542C422.701 119.542 413.876 123.67 397.667 123.67C381.466 123.67 372.657 119.535 372.657 119.535V98.485L389.538 50.714C389.316 52.211 390.196 53.748 392.176 54.889C395.329 56.711 398.367 56.917 401.908 55.499C402.36 55.325 402.779 55.119 403.176 54.889C405.275 53.677 406.139 52.021 405.759 50.445L422.701 98.073Z" fill="#F3541C"/>
<path opacity="0.5" d="M422.701 98.073V119.542C422.701 119.542 413.876 123.67 397.667 123.67C381.466 123.67 372.657 119.535 372.657 119.535V98.485L389.538 50.714C389.316 52.211 390.196 53.748 392.176 54.889C395.329 56.711 398.367 56.917 401.908 55.499C402.36 55.325 402.779 55.119 403.176 54.889C405.275 53.677 406.139 52.021 405.759 50.445L422.701 98.073Z" fill="white"/>
<path d="M420.762 248.567C419.541 250.255 417.745 251.838 415.366 253.212C405.591 258.856 389.742 258.856 379.967 253.212C377.587 251.838 375.792 250.255 374.571 248.567C373.377 246.916 372.739 245.164 372.653 243.404V253.73V254.552C372.827 258.112 375.261 261.642 379.967 264.36C389.742 270.004 405.591 270.004 415.366 264.36C420.254 261.538 422.697 257.84 422.697 254.141V242.993C422.697 244.891 422.049 246.788 420.762 248.567Z" fill="#F3541C"/>
<path d="M420.762 237.419C419.541 239.107 417.745 240.69 415.366 242.064C414.794 242.394 414.197 242.701 413.586 242.993C404.364 247.393 390.97 247.393 381.748 242.993C381.137 242.701 380.54 242.394 379.968 242.064C377.588 240.69 375.793 239.108 374.572 237.419C373.378 235.768 372.74 234.016 372.654 232.256V242.582V243.404C372.74 245.164 373.378 246.916 374.572 248.567C375.793 250.255 377.589 251.838 379.968 253.212C389.743 258.856 405.592 258.856 415.367 253.212C417.747 251.838 419.542 250.256 420.763 248.567C422.05 246.788 422.698 244.891 422.698 242.993V231.845C422.697 233.743 422.049 235.64 420.762 237.419Z" fill="#FFEDE7"/>
<path d="M420.762 226.272C419.541 227.96 417.745 229.543 415.366 230.917C414.794 231.247 414.197 231.554 413.586 231.846C404.364 236.246 390.97 236.246 381.748 231.846C381.137 231.554 380.54 231.247 379.968 230.917C377.588 229.543 375.793 227.96 374.572 226.272C373.378 224.621 372.74 222.869 372.654 221.109V231.435V232.257C372.74 234.017 373.378 235.769 374.572 237.42C375.793 239.108 377.589 240.691 379.968 242.065C380.54 242.395 381.137 242.702 381.748 242.994C390.97 247.394 404.365 247.394 413.586 242.994C414.197 242.702 414.794 242.395 415.366 242.065C417.746 240.691 419.541 239.109 420.762 237.42C422.049 235.641 422.697 233.744 422.697 231.846V220.698C422.697 222.596 422.049 224.492 420.762 226.272Z" fill="#F3541C"/>
<path d="M372.653 98.485V220.286V221.108C372.739 222.868 373.377 224.62 374.571 226.271C375.792 227.959 377.588 229.542 379.967 230.916C380.539 231.246 381.136 231.553 381.747 231.845C384.056 232.947 386.626 233.772 389.327 234.322L384.802 105.094L372.653 98.485Z" fill="#F3541C"/>
<path d="M410.538 105.093L406.013 234.321C408.711 233.771 411.279 232.946 413.586 231.845C414.197 231.553 414.794 231.246 415.366 230.916C417.746 229.542 419.541 227.96 420.762 226.271C422.049 224.492 422.697 222.595 422.697 220.697V98.074L410.538 105.093Z" fill="#F3541C"/>
<path d="M372.653 98.485V220.286V221.108C372.739 222.868 373.377 224.62 374.571 226.271C375.792 227.959 377.588 229.542 379.967 230.916C380.539 231.246 381.136 231.553 381.747 231.845C384.056 232.947 386.626 233.772 389.327 234.322L384.802 105.094L372.653 98.485Z" fill="#FA7252"/>
<path d="M410.538 105.093L406.013 234.321C408.711 233.771 411.279 232.946 413.586 231.845C414.197 231.553 414.794 231.246 415.366 230.916C417.746 229.542 419.541 227.96 420.762 226.271C422.049 224.492 422.697 222.595 422.697 220.697V98.074L410.538 105.093Z" fill="#FF7D5F"/>
<path d="M384.803 105.094V233.079C386.254 233.582 387.765 234.004 389.328 234.322C392.022 234.87 394.846 235.145 397.67 235.145C400.494 235.145 403.318 234.87 406.012 234.321C407.576 234.002 409.087 233.58 410.537 233.077V105.093L384.803 105.094Z" fill="#F55E29"/>
<path d="M403.174 54.889C402.778 55.119 402.358 55.325 401.906 55.499C398.365 56.917 395.327 56.711 392.174 54.889C390.194 53.748 389.314 52.211 389.536 50.714L395.297 34.584C395.741 33.523 396.7 33 397.666 33H397.674C398.641 33 399.607 33.523 400.051 34.576L405.749 50.421C405.749 50.429 405.757 50.437 405.757 50.445C406.137 52.021 405.273 53.677 403.174 54.889Z" fill="#FA5C37"/>
<path d="M415.366 264.359C406.966 269.209 394.092 269.879 384.43 266.394C383.888 266.199 383.36 265.985 382.841 265.764C382.599 265.661 382.352 265.565 382.116 265.456C381.375 265.116 380.654 264.755 379.968 264.36C375.262 261.643 372.828 258.112 372.654 254.552V284.903C372.466 288.737 374.9 292.606 379.968 295.533C380.572 295.882 381.2 296.208 381.847 296.514C382.089 296.628 382.346 296.724 382.592 296.832C383.006 297.013 383.416 297.2 383.845 297.364C384.176 297.491 384.521 297.597 384.859 297.714C385.22 297.838 385.573 297.971 385.942 298.083C386.344 298.206 386.758 298.308 387.169 298.418C387.486 298.503 387.798 298.596 388.121 298.673C388.591 298.785 389.071 298.875 389.549 298.97C389.82 299.023 390.087 299.086 390.361 299.134C390.901 299.229 391.449 299.302 391.997 299.376C392.214 299.405 392.428 299.442 392.646 299.467C393.255 299.539 393.869 299.589 394.484 299.634C394.643 299.646 394.8 299.664 394.959 299.674C395.629 299.716 396.3 299.736 396.973 299.747C397.078 299.749 397.182 299.755 397.287 299.756C398.009 299.762 398.729 299.747 399.45 299.717C399.505 299.715 399.559 299.715 399.614 299.712C400.375 299.678 401.131 299.622 401.885 299.548C401.899 299.547 401.912 299.546 401.925 299.545C406.568 299.084 411.018 297.86 414.699 295.881C414.919 295.763 415.152 295.657 415.366 295.533C420.254 292.711 422.698 289.013 422.698 285.314V254.141C422.698 257.839 420.254 261.538 415.366 264.359Z" fill="#FA5C37"/>
<path d="M113.483 282.079C110.591 281.349 95.16 272.565 93.594 271.499C92.027 270.432 88.918 268.223 88.918 264.414C88.918 261.036 89.272 229.262 92.028 213.907C93.384 206.354 98.283 196.458 107.883 190.509C117.483 184.559 127.126 180.253 135.262 183.627C143.399 187.001 150.813 193.219 154.011 200.719C157.209 208.219 159.403 223.238 159.63 229.048C159.857 234.857 159.63 254.783 159.63 256.55C159.63 258.317 159.31 260.623 149.783 266.522C140.256 272.422 127.089 279.518 123.019 281.35C119.922 282.744 116.105 282.74 113.483 282.079Z" fill="#F3541C"/>
<path d="M111.1 194.637C110.223 195.143 107.68 193.889 107.298 193.261C106.916 192.633 106.819 187.181 108.715 184.168C110.612 181.155 122.473 175.613 125.403 176.022C128.332 176.43 130.481 178.722 130.846 179.498C131.211 180.274 131.61 185.345 130.846 186.38C130.082 187.415 127.375 185.824 127.138 185.378C126.9 184.932 128.031 181.235 126.117 180.462C124.38 179.761 116.13 183.268 112.758 186.095C111.299 187.318 111.372 190.374 111.435 191.886C111.499 193.396 111.545 194.38 111.1 194.637Z" fill="#F79978"/>
<path d="M108.715 230.423C110.42 213.907 113.483 204.272 129.635 197.08C145.786 189.888 152.046 196.013 154.337 201.519C157.357 209.241 159.411 223.436 159.63 229.046C159.857 234.855 159.63 254.781 159.63 256.548C159.63 258.315 159.31 260.621 149.783 266.52C140.256 272.42 127.089 279.516 123.019 281.348C119.922 282.743 116.105 282.739 113.483 282.078C113.082 281.977 112.432 281.716 111.618 281.347C106.589 274.916 107.159 245.498 108.715 230.423Z" fill="#F79978"/>
<path d="M146.366 190.63C142.155 188.161 135.229 186.534 125.075 191.059C106.913 199.151 102.304 209.281 100.472 227.025C100.136 230.279 99.6489 234.157 99.4389 238.33L97.9399 237.425C98.1519 232.923 98.5859 229.069 98.9669 225.593C100.932 207.678 106.342 197.775 123.693 190.049C133.295 185.773 139.613 186.335 143.788 188.437C144.584 189.049 145.331 189.65 146.366 190.63Z" fill="#E03B14"/>
<path d="M146.997 191.09C142.786 188.622 135.86 186.994 125.706 191.518C107.545 199.611 102.935 209.74 101.103 227.484C100.767 230.738 100.28 234.616 100.07 238.789L98.5708 237.884C98.7828 233.382 99.2168 229.528 99.5978 226.053C101.563 208.138 106.973 198.235 124.324 190.509C133.926 186.233 140.414 186.943 144.59 189.045C145.386 189.656 145.963 190.11 146.997 191.09Z" fill="#F79978"/>
<path d="M141.121 206.785L135.633 203.654C135.07 203.333 134.351 203.528 134.028 204.09L128.395 213.88C128.072 214.442 128.263 215.162 128.824 215.489L134.245 218.65C134.805 218.976 135.522 218.787 135.847 218.226L141.552 208.383C141.877 207.822 141.684 207.106 141.121 206.785Z" fill="#E03B14"/>
<path d="M135.233 217.528L140.64 208.2C140.803 207.919 140.706 207.562 140.425 207.401L135.449 204.562C135.167 204.401 134.808 204.499 134.646 204.78L129.302 214.068C129.14 214.349 129.236 214.709 129.516 214.872L134.432 217.739C134.712 217.904 135.071 217.809 135.233 217.528Z" fill="#F79978"/>
<path d="M136.392 213.068C136.68 212.902 136.913 212.534 136.913 212.246V207.782C136.913 207.494 136.68 207.396 136.392 207.562C136.104 207.728 135.871 208.096 135.871 208.384V212.847C135.871 213.136 136.104 213.234 136.392 213.068Z" fill="#F3541C"/>
<path d="M133.487 214.745C133.775 214.579 134.008 214.211 134.008 213.923V209.46C134.008 209.172 133.775 209.074 133.487 209.24C133.199 209.406 132.966 209.774 132.966 210.062V214.525C132.966 214.813 133.199 214.912 133.487 214.745Z" fill="#F3541C"/>
<path d="M116.199 244.379C116.199 244.379 118.923 246.622 120.875 255.06C122.826 263.497 124.016 274.134 121.858 275.407C119.7 276.681 116.632 274.012 115.867 273.091C114.297 271.201 114.688 251.141 116.199 244.379Z" fill="#E03B14"/>
<path d="M116.199 244.379C116.199 244.379 118.923 246.622 120.875 255.06C122.826 263.497 124.016 274.134 121.858 275.407L154.9 255.946C157.058 254.672 157.589 243.501 155.638 235.064C154.353 229.505 151.985 226.867 150.519 225.714C149.838 225.178 148.899 225.12 148.152 225.56L116.199 244.379Z" fill="#F3541C"/>
<path d="M149.818 226.988C151.401 227.774 154.079 229.919 155.29 235.634C155.672 237.438 155.037 239.196 153.938 239.973C152.838 240.75 129.225 254.183 126.094 256.049C123.394 257.658 121.988 255.519 121.395 254.183H121.393C120.408 251.801 119.53 249.95 118.789 248.53C117.406 245.375 116.198 244.378 116.198 244.378L147.67 227.084C148.327 226.698 149.136 226.65 149.818 226.988Z" fill="#E03B14"/>
<path d="M100.485 239.755C100.485 239.755 101.433 243.438 101.377 245.01C101.364 245.373 100.892 245.56 100.748 245.564C99.9072 245.584 97.8632 244.311 97.6912 243.969C97.5182 243.627 98.5092 239.489 98.5092 239.489L100.485 239.755Z" fill="#E03B14"/>
<path d="M101.505 238.354C101.505 237.301 100.651 236.447 99.5984 236.447C98.5454 236.447 97.6914 237.301 97.6914 238.354C97.6914 239.407 98.5454 240.261 99.5984 240.261C100.652 240.261 101.505 239.407 101.505 238.354Z" fill="#E03B14"/>
<path d="M125.403 180.374C127.494 180.173 129.46 180.356 129.964 182.46C130.467 184.563 130.284 186.453 129.964 186.72C128.87 186.68 127.316 185.71 127.138 185.377C126.9 184.931 128.031 181.234 126.117 180.461C125.942 180.391 125.698 180.365 125.403 180.374Z" fill="#E03B14"/>
<path d="M148.334 225.452C148.99 225.066 149.799 225.017 150.481 225.356C152.064 226.142 154.743 228.287 155.953 234.002C156.335 235.806 155.7 237.564 154.601 238.341C153.501 239.118 129.888 252.551 126.757 254.417C124.057 256.026 122.651 253.887 122.058 252.551C118.795 245.711 116.2 244.379 116.2 244.379L148.334 225.452Z" fill="#F3541C"/>
<path d="M142.669 341.793L116.191 326.506C114.878 325.748 113.813 323.903 113.813 322.387L113.8 322.692C113.8 321.175 114.865 319.331 116.178 318.573L169.429 287.829C170.742 287.071 172.872 287.071 174.186 287.829L200.664 303.116C201.978 303.874 203.042 305.719 203.042 307.235L203.055 306.93C203.055 308.447 201.99 310.291 200.677 311.049L147.426 341.793C146.112 342.552 143.982 342.552 142.669 341.793Z" fill="#4F64D9"/>
<path opacity="0.7" d="M142.669 341.793L116.191 326.506C114.878 325.748 113.813 323.903 113.813 322.387L113.8 322.692C113.8 321.175 114.865 319.331 116.178 318.573L169.429 287.829C170.742 287.071 172.872 287.071 174.186 287.829L200.664 303.116C201.978 303.874 203.042 305.719 203.042 307.235L203.055 306.93C203.055 308.447 201.99 310.291 200.677 311.049L147.426 341.793C146.112 342.552 143.982 342.552 142.669 341.793Z" fill="black"/>
<path d="M145.034 301.912L116.178 318.572C114.864 319.33 113.8 321.175 113.8 322.691L113.813 322.386C113.813 323.903 114.878 325.747 116.191 326.505L142.669 341.792C143.326 342.171 144.187 342.361 145.047 342.361L145.034 301.912Z" fill="#4F64D9"/>
<path opacity="0.7" d="M145.034 301.912L116.178 318.572C114.864 319.33 113.8 321.175 113.8 322.691L113.813 322.386C113.813 323.903 114.878 325.747 116.191 326.505L142.669 341.792C143.326 342.171 144.187 342.361 145.047 342.361L145.034 301.912Z" fill="black"/>
<path d="M116.177 321.319L142.655 336.606C143.969 337.364 146.098 337.364 147.412 336.606L200.663 305.862C201.977 305.104 201.977 303.874 200.663 303.116L174.185 287.829C172.871 287.071 170.742 287.071 169.428 287.829L116.177 318.573C114.864 319.331 114.864 320.56 116.177 321.319Z" fill="#4F64D9"/>
<path opacity="0.5" d="M116.177 321.319L142.655 336.606C143.969 337.364 146.098 337.364 147.412 336.606L200.663 305.862C201.977 305.104 201.977 303.874 200.663 303.116L174.185 287.829C172.871 287.071 170.742 287.071 169.428 287.829L116.177 318.573C114.864 319.331 114.864 320.56 116.177 321.319Z" fill="black"/>
<path d="M116.177 316.293V318.827L143.661 334.695C144.51 335.185 145.556 335.185 146.405 334.695L200.662 303.37V300.751L145.034 327.717L116.177 316.293Z" fill="#4F64D9"/>
<path d="M142.656 331.58L116.178 316.293C114.865 315.535 113.8 313.69 113.8 312.174V307.277C113.8 305.76 114.865 303.916 116.178 303.158L169.429 272.414C170.742 271.656 172.872 271.656 174.186 272.414L200.664 287.701C201.978 288.459 203.042 290.304 203.042 291.82V296.717C203.042 298.234 201.977 299.993 200.664 300.751L147.413 331.58C146.099 332.339 143.969 332.339 142.656 331.58Z" fill="#4F64D9"/>
<path opacity="0.6" d="M142.656 331.58L116.178 316.293C114.865 315.535 113.8 313.69 113.8 312.174V307.277C113.8 305.76 114.865 303.916 116.178 303.158L169.429 272.414C170.742 271.656 172.872 271.656 174.186 272.414L200.664 287.701C201.978 288.459 203.042 290.304 203.042 291.82V296.717C203.042 298.234 201.977 299.993 200.664 300.751L147.413 331.58C146.099 332.339 143.969 332.339 142.656 331.58Z" fill="black"/>
<path d="M145.034 286.497L116.178 303.157C114.864 303.915 113.8 305.76 113.8 307.276V312.173C113.8 313.69 114.865 315.534 116.178 316.292L142.656 331.579C143.313 331.958 144.173 332.148 145.034 332.148V286.497Z" fill="#4F64D9"/>
<path opacity="0.7" d="M145.034 286.497L116.178 303.157C114.864 303.915 113.8 305.76 113.8 307.276V312.173C113.8 313.69 114.865 315.534 116.178 316.292L142.656 331.579C143.313 331.958 144.173 332.148 145.034 332.148V286.497Z" fill="black"/>
<path d="M116.177 305.904L142.655 321.191C143.969 321.949 146.098 321.949 147.412 321.191L200.663 290.447C201.977 289.689 201.977 288.459 200.663 287.701L174.185 272.414C172.871 271.656 170.742 271.656 169.428 272.414L116.177 303.158C114.864 303.916 114.864 305.145 116.177 305.904Z" fill="#4F64D9"/>
<path opacity="0.5" d="M116.177 305.904L142.655 321.191C143.969 321.949 146.098 321.949 147.412 321.191L200.663 290.447C201.977 289.689 201.977 288.459 200.663 287.701L174.185 272.414C172.871 271.656 170.742 271.656 169.428 272.414L116.177 303.158C114.864 303.916 114.864 305.145 116.177 305.904Z" fill="black"/>
<path d="M153.11 293.754C150.177 295.447 150.177 298.181 153.11 299.861C156.043 301.54 160.798 301.54 163.731 299.861C166.664 298.182 166.664 295.448 163.731 293.754C160.798 292.06 156.043 292.06 153.11 293.754Z" fill="#4F64D9"/>
<path d="M196.348 295.54C195.835 295.831 195.419 296.555 195.419 297.157C195.419 297.759 195.835 298.011 196.348 297.72C196.861 297.429 197.277 296.705 197.277 296.103C197.277 295.501 196.861 295.249 196.348 295.54Z" fill="#4F64D9"/>
<path d="M196.348 299.132C195.835 299.423 195.419 300.147 195.419 300.749C195.419 301.351 195.835 301.603 196.348 301.312C196.861 301.021 197.277 300.297 197.277 299.695C197.277 299.092 196.861 298.841 196.348 299.132Z" fill="#4F64D9"/>
<path d="M131.568 361.952C131.449 361.952 131.328 361.922 131.217 361.857L105.562 346.97C104.194 346.176 103.378 344.758 103.38 343.177C103.382 341.595 104.201 340.179 105.57 339.388L124.379 328.529C124.712 328.336 125.142 328.45 125.334 328.785C125.527 329.119 125.413 329.547 125.078 329.74L106.269 340.599C105.337 341.137 104.78 342.102 104.778 343.178C104.777 344.255 105.332 345.22 106.263 345.761L131.918 360.648C132.252 360.842 132.366 361.27 132.172 361.603C132.044 361.827 131.809 361.952 131.568 361.952Z" fill="#4F64D9"/>
<path d="M163.709 347.605L158.148 325.276C158.069 324.957 157.963 324.663 157.845 324.382L159.463 324.147L155.935 322.107C154.594 321.325 152.861 321.335 151.164 322.319L127.972 335.765C124.957 337.513 122.514 341.756 122.515 345.241L122.521 372.084C122.522 374.217 123.045 375.69 124.11 376.2L124.103 376.202L127.425 378.118L126.622 376.002C126.681 375.976 126.736 375.957 126.796 375.928C130.61 374.107 131.992 370.791 133.131 367.498L137.54 354.755C138.679 351.461 141.518 347.687 143.88 346.325C146.242 344.963 149.556 346.313 151.283 349.34L153.497 353.221C154.246 354.534 155.296 355.528 156.438 356.122L159.824 358.087L158.963 356.752C159.652 356.738 160.322 356.567 160.929 356.216C163.307 354.841 164.552 350.987 163.709 347.605Z" fill="#4F64D9"/>
<path opacity="0.7" d="M163.709 347.605L158.148 325.276C158.069 324.957 157.963 324.663 157.845 324.382L159.463 324.147L155.935 322.107C154.594 321.325 152.861 321.335 151.164 322.319L127.972 335.765C124.957 337.513 122.514 341.756 122.515 345.241L122.521 372.084C122.522 374.217 123.045 375.69 124.11 376.2L124.103 376.202L127.425 378.118L126.622 376.002C126.681 375.976 126.736 375.957 126.796 375.928C130.61 374.107 131.992 370.791 133.131 367.498L137.54 354.755C138.679 351.461 141.518 347.687 143.88 346.325C146.242 344.963 149.556 346.313 151.283 349.34L153.497 353.221C154.246 354.534 155.296 355.528 156.438 356.122L159.824 358.087L158.963 356.752C159.652 356.738 160.322 356.567 160.929 356.216C163.307 354.841 164.552 350.987 163.709 347.605Z" fill="black"/>
<path d="M157.845 324.382L159.463 324.147L155.935 322.107C154.594 321.325 152.861 321.335 151.164 322.319L127.972 335.765C126.752 336.473 125.637 337.598 124.728 338.907L130.243 342.269L158.416 326.354L158.148 325.277C158.069 324.957 157.963 324.663 157.845 324.382Z" fill="#4F64D9"/>
<path opacity="0.5" d="M157.845 324.382L159.463 324.147L155.935 322.107C154.594 321.325 152.861 321.335 151.164 322.319L127.972 335.765C126.752 336.473 125.637 337.598 124.728 338.907L130.243 342.269L158.416 326.354L158.148 325.277C158.069 324.957 157.963 324.663 157.845 324.382Z" fill="black"/>
<path d="M164.534 358.299C162.156 359.672 158.828 358.331 157.101 355.304L154.887 351.423C153.16 348.396 149.845 347.046 147.483 348.408C145.121 349.77 142.282 353.544 141.143 356.838L136.734 369.581C135.595 372.875 134.212 376.19 130.399 378.011C127.514 379.389 126.126 377.652 126.125 374.167L126.119 347.323C126.118 343.838 128.562 339.596 131.577 337.848L154.768 324.402C157.783 322.654 160.91 323.978 161.752 327.36L167.313 349.689C168.157 353.071 166.912 356.926 164.534 358.299Z" fill="#4F64D9"/>
<path opacity="0.6" d="M164.534 358.299C162.156 359.672 158.828 358.331 157.101 355.304L154.887 351.423C153.16 348.396 149.845 347.046 147.483 348.408C145.121 349.77 142.282 353.544 141.143 356.838L136.734 369.581C135.595 372.875 134.212 376.19 130.399 378.011C127.514 379.389 126.126 377.652 126.125 374.167L126.119 347.323C126.118 343.838 128.562 339.596 131.577 337.848L154.768 324.402C157.783 322.654 160.91 323.978 161.752 327.36L167.313 349.689C168.157 353.071 166.912 356.926 164.534 358.299Z" fill="black"/>
<path d="M155.541 332.133L156.121 335.424L158.684 333.778L159.264 337.069L156.701 338.717L157.283 342.008L154.723 343.651L154.141 340.362L151.581 342.006L151.001 338.715L153.561 337.071L152.981 333.78L155.541 332.133Z" fill="#263238"/>
<path d="M156.281 332.522L156.861 335.813L159.424 334.168L160.005 337.459L157.441 339.106L158.023 342.397L155.464 344.041L154.882 340.751L152.322 342.395L151.742 339.104L154.302 337.461L153.722 334.17L156.281 332.522Z" fill="#4F64D9"/>
<path d="M136.137 343.776C136.297 344.685 135.854 345.79 135.147 346.245C134.44 346.7 133.737 346.332 133.577 345.423C133.417 344.514 133.86 343.409 134.567 342.954C135.274 342.499 135.977 342.867 136.137 343.776Z" fill="#263238"/>
<path d="M137.298 350.358C137.458 351.267 137.015 352.372 136.308 352.827C135.601 353.282 134.898 352.914 134.738 352.005C134.578 351.096 135.021 349.991 135.728 349.536C136.435 349.082 137.138 349.449 137.298 350.358Z" fill="#263238"/>
<path d="M139.279 345.422C139.439 346.331 138.996 347.436 138.289 347.891C137.582 348.346 136.879 347.978 136.719 347.069C136.559 346.16 137.002 345.055 137.709 344.6C138.416 344.145 139.119 344.513 139.279 345.422Z" fill="#263238"/>
<path d="M134.161 348.713C134.321 349.622 133.878 350.727 133.171 351.182C132.464 351.637 131.761 351.269 131.601 350.36C131.441 349.451 131.884 348.346 132.591 347.891C133.298 347.436 134.001 347.804 134.161 348.713Z" fill="#263238"/>
<path d="M136.19 343.81C136.35 344.719 135.907 345.824 135.2 346.279C134.493 346.734 133.79 346.366 133.63 345.457C133.47 344.548 133.913 343.443 134.62 342.988C135.327 342.533 136.03 342.901 136.19 343.81Z" fill="#263238"/>
<path d="M137.351 350.392C137.511 351.301 137.068 352.406 136.361 352.861C135.654 353.316 134.951 352.948 134.791 352.039C134.631 351.13 135.074 350.025 135.781 349.57C136.488 349.115 137.191 349.483 137.351 350.392Z" fill="#263238"/>
<path d="M139.332 345.455C139.492 346.364 139.049 347.469 138.342 347.924C137.635 348.379 136.932 348.011 136.772 347.102C136.612 346.193 137.055 345.088 137.762 344.633C138.469 344.178 139.172 344.547 139.332 345.455Z" fill="#263238"/>
<path d="M134.214 348.746C134.374 349.655 133.931 350.76 133.224 351.215C132.517 351.67 131.814 351.302 131.654 350.393C131.494 349.484 131.937 348.379 132.644 347.924C133.351 347.47 134.054 347.838 134.214 348.746Z" fill="#263238"/>
<path d="M136.243 343.843C136.403 344.752 135.96 345.857 135.253 346.312C134.546 346.767 133.843 346.399 133.683 345.49C133.523 344.581 133.966 343.476 134.673 343.021C135.38 342.567 136.083 342.935 136.243 343.843Z" fill="#263238"/>
<path d="M137.404 350.425C137.564 351.334 137.121 352.439 136.414 352.894C135.707 353.349 135.004 352.981 134.844 352.072C134.684 351.163 135.127 350.058 135.834 349.603C136.541 349.149 137.244 349.517 137.404 350.425Z" fill="#263238"/>
<path d="M139.385 345.489C139.545 346.398 139.102 347.503 138.395 347.958C137.688 348.413 136.985 348.045 136.825 347.136C136.665 346.227 137.108 345.122 137.815 344.667C138.522 344.212 139.225 344.58 139.385 345.489Z" fill="#263238"/>
<path d="M134.267 348.78C134.427 349.689 133.984 350.794 133.277 351.249C132.57 351.704 131.867 351.336 131.707 350.427C131.547 349.518 131.99 348.413 132.697 347.958C133.404 347.503 134.106 347.871 134.267 348.78Z" fill="#263238"/>
<path d="M136.296 343.877C136.456 344.786 136.013 345.891 135.306 346.346C134.599 346.801 133.896 346.433 133.736 345.524C133.576 344.615 134.019 343.51 134.726 343.055C135.433 342.6 136.136 342.968 136.296 343.877Z" fill="#263238"/>
<path d="M137.457 350.459C137.617 351.368 137.174 352.473 136.467 352.928C135.76 353.383 135.057 353.015 134.897 352.106C134.737 351.197 135.18 350.092 135.887 349.637C136.594 349.182 137.297 349.55 137.457 350.459Z" fill="#263238"/>
<path d="M139.438 345.523C139.598 346.432 139.155 347.537 138.448 347.992C137.741 348.447 137.038 348.079 136.878 347.17C136.718 346.261 137.161 345.156 137.868 344.701C138.575 344.246 139.278 344.614 139.438 345.523Z" fill="#263238"/>
<path d="M134.32 348.814C134.48 349.723 134.037 350.828 133.33 351.283C132.623 351.738 131.92 351.37 131.76 350.461C131.6 349.552 132.043 348.447 132.75 347.992C133.457 347.537 134.16 347.905 134.32 348.814Z" fill="#263238"/>
<path d="M136.349 343.911C136.509 344.82 136.066 345.925 135.359 346.38C134.652 346.835 133.949 346.467 133.789 345.558C133.629 344.649 134.072 343.544 134.779 343.089C135.486 342.634 136.189 343.002 136.349 343.911Z" fill="#263238"/>
<path d="M137.51 350.493C137.67 351.402 137.227 352.507 136.52 352.962C135.813 353.417 135.11 353.049 134.95 352.14C134.79 351.231 135.233 350.126 135.94 349.671C136.647 349.216 137.35 349.584 137.51 350.493Z" fill="#263238"/>
<path d="M139.491 345.556C139.651 346.465 139.208 347.57 138.501 348.025C137.794 348.48 137.091 348.112 136.931 347.203C136.771 346.294 137.214 345.189 137.921 344.734C138.628 344.279 139.331 344.647 139.491 345.556Z" fill="#263238"/>
<path d="M134.372 348.847C134.532 349.756 134.089 350.861 133.382 351.316C132.675 351.771 131.972 351.403 131.812 350.494C131.652 349.585 132.095 348.48 132.802 348.025C133.509 347.571 134.211 347.939 134.372 348.847Z" fill="#263238"/>
<path d="M136.402 343.944C136.562 344.853 136.119 345.958 135.412 346.413C134.705 346.868 134.002 346.5 133.842 345.591C133.682 344.682 134.125 343.577 134.832 343.122C135.539 342.668 136.242 343.036 136.402 343.944Z" fill="#263238"/>
<path d="M137.563 350.526C137.723 351.435 137.28 352.54 136.573 352.995C135.866 353.45 135.163 353.082 135.003 352.173C134.843 351.264 135.286 350.159 135.993 349.704C136.7 349.25 137.403 349.618 137.563 350.526Z" fill="#263238"/>
<path d="M139.544 345.59C139.704 346.499 139.261 347.604 138.554 348.059C137.847 348.514 137.144 348.146 136.984 347.237C136.824 346.328 137.267 345.223 137.974 344.768C138.681 344.313 139.384 344.681 139.544 345.59Z" fill="#263238"/>
<path d="M134.426 348.881C134.586 349.79 134.143 350.895 133.436 351.35C132.729 351.805 132.026 351.437 131.866 350.528C131.706 349.619 132.149 348.514 132.856 348.059C133.563 347.604 134.265 347.972 134.426 348.881Z" fill="#263238"/>
<path d="M136.454 343.978C136.614 344.887 136.171 345.992 135.464 346.447C134.757 346.902 134.054 346.534 133.894 345.625C133.734 344.716 134.177 343.611 134.884 343.156C135.591 342.701 136.294 343.069 136.454 343.978Z" fill="#263238"/>
<path d="M137.616 350.56C137.776 351.469 137.333 352.574 136.626 353.029C135.919 353.484 135.216 353.116 135.056 352.207C134.896 351.298 135.339 350.193 136.046 349.738C136.753 349.283 137.456 349.651 137.616 350.56Z" fill="#263238"/>
<path d="M139.597 345.623C139.757 346.532 139.314 347.637 138.607 348.092C137.9 348.547 137.197 348.179 137.037 347.27C136.877 346.361 137.32 345.256 138.027 344.801C138.734 344.346 139.437 344.715 139.597 345.623Z" fill="#263238"/>
<path d="M134.478 348.914C134.638 349.823 134.195 350.928 133.488 351.383C132.781 351.838 132.078 351.47 131.918 350.561C131.758 349.652 132.201 348.547 132.908 348.092C133.614 347.638 134.317 348.006 134.478 348.914Z" fill="#263238"/>
<path d="M136.508 344.012C136.668 344.921 136.225 346.026 135.518 346.481C134.811 346.936 134.108 346.568 133.948 345.659C133.788 344.75 134.231 343.645 134.938 343.19C135.645 342.735 136.348 343.103 136.508 344.012Z" fill="#263238"/>
<path d="M137.669 350.594C137.829 351.503 137.386 352.608 136.679 353.063C135.972 353.518 135.269 353.15 135.109 352.241C134.949 351.332 135.392 350.227 136.099 349.772C136.806 349.317 137.508 349.685 137.669 350.594Z" fill="#263238"/>
<path d="M139.65 345.657C139.81 346.566 139.367 347.671 138.66 348.126C137.953 348.581 137.25 348.213 137.09 347.304C136.93 346.395 137.373 345.29 138.08 344.835C138.787 344.38 139.49 344.748 139.65 345.657Z" fill="#263238"/>
<path d="M134.531 348.948C134.691 349.857 134.248 350.962 133.541 351.417C132.834 351.872 132.131 351.504 131.971 350.595C131.811 349.686 132.254 348.581 132.961 348.126C133.668 347.671 134.371 348.039 134.531 348.948Z" fill="#263238"/>
<path d="M136.56 344.045C136.72 344.954 136.277 346.059 135.57 346.514C134.863 346.969 134.16 346.601 134 345.692C133.84 344.783 134.283 343.678 134.99 343.223C135.697 342.768 136.4 343.136 136.56 344.045Z" fill="#263238"/>
<path d="M137.722 350.627C137.882 351.536 137.439 352.641 136.732 353.096C136.025 353.551 135.322 353.183 135.162 352.274C135.002 351.365 135.445 350.26 136.152 349.805C136.859 349.35 137.561 349.718 137.722 350.627Z" fill="#263238"/>
<path d="M139.703 345.691C139.863 346.6 139.42 347.705 138.713 348.16C138.006 348.615 137.303 348.247 137.143 347.338C136.983 346.429 137.426 345.324 138.133 344.869C138.84 344.414 139.543 344.782 139.703 345.691Z" fill="#263238"/>
<path d="M134.583 348.982C134.743 349.891 134.3 350.996 133.593 351.451C132.886 351.906 132.183 351.538 132.023 350.629C131.863 349.72 132.306 348.615 133.013 348.16C133.72 347.705 134.423 348.073 134.583 348.982Z" fill="#263238"/>
<path d="M136.614 344.079C136.774 344.988 136.331 346.093 135.624 346.548C134.917 347.003 134.214 346.635 134.054 345.726C133.894 344.817 134.337 343.712 135.044 343.257C135.751 342.802 136.454 343.17 136.614 344.079Z" fill="#263238"/>
<path d="M137.775 350.661C137.935 351.57 137.492 352.675 136.785 353.13C136.078 353.585 135.375 353.217 135.215 352.308C135.055 351.399 135.498 350.294 136.205 349.839C136.912 349.384 137.614 349.752 137.775 350.661Z" fill="#263238"/>
<path d="M139.756 345.724C139.916 346.633 139.473 347.738 138.766 348.193C138.059 348.648 137.356 348.28 137.196 347.371C137.036 346.462 137.479 345.357 138.186 344.902C138.893 344.448 139.596 344.816 139.756 345.724Z" fill="#263238"/>
<path d="M134.637 349.015C134.797 349.924 134.354 351.029 133.647 351.484C132.94 351.939 132.237 351.571 132.077 350.662C131.917 349.753 132.36 348.648 133.067 348.193C133.774 347.739 134.477 348.107 134.637 349.015Z" fill="#263238"/>
<path d="M136.666 344.112C136.826 345.021 136.383 346.126 135.676 346.581C134.969 347.036 134.266 346.668 134.106 345.759C133.946 344.85 134.389 343.745 135.096 343.29C135.803 342.836 136.506 343.204 136.666 344.112Z" fill="#263238"/>
<path d="M137.828 350.694C137.988 351.603 137.545 352.708 136.838 353.163C136.131 353.618 135.428 353.25 135.268 352.341C135.108 351.432 135.551 350.327 136.258 349.872C136.965 349.418 137.667 349.786 137.828 350.694Z" fill="#263238"/>
<path d="M139.809 345.758C139.969 346.667 139.526 347.772 138.819 348.227C138.112 348.682 137.409 348.314 137.249 347.405C137.089 346.496 137.532 345.391 138.239 344.936C138.946 344.481 139.649 344.849 139.809 345.758Z" fill="#263238"/>
<path d="M134.689 349.049C134.849 349.958 134.406 351.063 133.699 351.518C132.992 351.973 132.289 351.605 132.129 350.696C131.969 349.787 132.412 348.682 133.119 348.227C133.826 347.772 134.529 348.14 134.689 349.049Z" fill="#263238"/>
<path d="M136.72 344.146C136.88 345.055 136.437 346.16 135.73 346.615C135.023 347.07 134.32 346.702 134.16 345.793C134 344.884 134.443 343.779 135.15 343.324C135.857 342.869 136.56 343.237 136.72 344.146Z" fill="#263238"/>
<path d="M137.881 350.728C138.041 351.637 137.598 352.742 136.891 353.197C136.184 353.652 135.481 353.284 135.321 352.375C135.161 351.466 135.604 350.361 136.311 349.906C137.018 349.451 137.72 349.819 137.881 350.728Z" fill="#263238"/>
<path d="M139.862 345.792C140.022 346.701 139.579 347.806 138.872 348.261C138.165 348.716 137.462 348.348 137.302 347.439C137.142 346.53 137.585 345.425 138.292 344.97C138.999 344.515 139.702 344.883 139.862 345.792Z" fill="#263238"/>
<path d="M134.743 349.082C134.903 349.991 134.46 351.096 133.753 351.551C133.046 352.006 132.343 351.638 132.183 350.729C132.023 349.82 132.466 348.715 133.173 348.26C133.88 347.806 134.583 348.174 134.743 349.082Z" fill="#263238"/>
<path d="M155.541 332.133L156.28 332.522L153.721 334.17L152.981 333.78L155.541 332.133Z" fill="#263238"/>
<path d="M153.561 337.071L154.301 337.461L151.741 339.104L151.001 338.715L153.561 337.071Z" fill="#263238"/>
<path d="M156.861 335.813L156.724 335.038L158.685 333.778L159.424 334.168L156.861 335.813Z" fill="#263238"/>
<path d="M151.001 338.715L151.741 339.104L152.321 342.395L151.581 342.006L151.001 338.715Z" fill="#263238"/>
<path d="M154.724 343.651L155.464 344.041L154.882 340.751L154.28 341.138L154.724 343.651Z" fill="#263238"/>
<path d="M136.72 344.146C136.88 345.055 136.437 346.16 135.73 346.615C135.023 347.07 134.32 346.702 134.16 345.793C134 344.884 134.443 343.779 135.15 343.324C135.857 342.869 136.56 343.237 136.72 344.146Z" fill="#4F64D9"/>
<path d="M137.881 350.728C138.041 351.637 137.598 352.742 136.891 353.197C136.184 353.652 135.481 353.284 135.321 352.375C135.161 351.466 135.604 350.361 136.311 349.906C137.018 349.451 137.72 349.819 137.881 350.728Z" fill="#4F64D9"/>
<path d="M139.862 345.792C140.022 346.701 139.579 347.806 138.872 348.261C138.165 348.716 137.462 348.348 137.302 347.439C137.142 346.53 137.585 345.425 138.292 344.97C138.999 344.515 139.702 344.883 139.862 345.792Z" fill="#4F64D9"/>
<path d="M134.743 349.082C134.903 349.991 134.46 351.096 133.753 351.551C133.046 352.006 132.343 351.638 132.183 350.729C132.023 349.82 132.466 348.715 133.173 348.26C133.88 347.806 134.583 348.174 134.743 349.082Z" fill="#4F64D9"/>
<path d="M161.32 64.689L150.573 70.894C150.626 70.414 150.663 69.938 150.663 69.471V66.358C150.663 60.818 146.773 58.572 141.975 61.342C140.032 62.464 138.244 64.242 136.797 66.321C136.011 59.354 130.545 56.759 123.906 60.592C116.728 64.736 110.908 74.816 110.908 83.105V87.763C110.908 89.91 111.305 91.718 112.008 93.159L103.081 98.313C100.419 99.85 98.2622 103.587 98.2622 106.66C98.2622 109.733 100.42 110.979 103.081 109.442L161.318 75.819C163.98 74.282 166.137 70.545 166.137 67.472C166.139 64.398 163.981 63.152 161.32 64.689Z" fill="#F0F0F0"/>
<path d="M384.667 344.108L382.71 342.984L384.129 342.344C384.129 342.344 385.245 342.638 385.271 342.69C385.297 342.742 385.193 343.46 385.193 343.46L384.667 344.108Z" fill="#E0E0E0"/>
<path d="M384.667 344.108L382.71 342.984L384.129 342.344C384.129 342.344 385.245 342.638 385.271 342.69C385.297 342.742 385.193 343.46 385.193 343.46L384.667 344.108Z" fill="#4F64D9"/>
<path opacity="0.1" d="M384.667 344.108L382.71 342.984L384.129 342.344C384.129 342.344 385.245 342.638 385.271 342.69C385.297 342.742 385.193 343.46 385.193 343.46L384.667 344.108Z" fill="white"/>
<path d="M310.254 381.598C311.832 382.509 314.39 382.509 315.967 381.598L380.108 344.564L284.092 289.123L281.849 287.825L217.71 324.859C216.138 325.772 216.138 327.256 217.71 328.158L310.254 381.598Z" fill="#4F64D9"/>
<path opacity="0.8" d="M310.254 381.598C311.832 382.509 314.39 382.509 315.967 381.598L380.108 344.564L284.092 289.123L281.849 287.825L217.71 324.859C216.138 325.772 216.138 327.256 217.71 328.158L310.254 381.598Z" fill="white"/>
<path d="M334.338 311.64L356.705 324.514L371.185 316.154L388.03 325.885C388.03 325.885 388.03 336.554 388.03 338.025C388.03 339.497 386.379 341.593 385.779 341.248C385.779 341.248 384.46 341.518 382.559 342.391C380.658 343.265 377.911 345.83 377.911 345.83L326.515 316.157L334.338 311.64Z" fill="#E0E0E0"/>
<path d="M334.338 311.64L356.705 324.514L371.185 316.154L388.03 325.885C388.03 325.885 388.03 336.554 388.03 338.025C388.03 339.497 386.379 341.593 385.779 341.248C385.779 341.248 384.46 341.518 382.559 342.391C380.658 343.265 377.911 345.83 377.911 345.83L326.515 316.157L334.338 311.64Z" fill="#4F64D9"/>
<path opacity="0.1" d="M334.338 311.64L356.705 324.514L371.185 316.154L388.03 325.885C388.03 325.885 388.03 336.554 388.03 338.025C388.03 339.497 386.379 341.593 385.779 341.248C385.779 341.248 384.46 341.518 382.559 342.391C380.658 343.265 377.911 345.83 377.911 345.83L326.515 316.157L334.338 311.64Z" fill="white"/>
<path d="M315.969 381.595L319.84 379.352L377.909 345.826C377.931 345.1 378.228 344.386 378.701 343.748C379.361 342.824 380.35 342.033 381.241 341.516C381.923 341.12 382.945 340.658 383.979 340.658C384.683 340.658 385.298 340.878 385.782 341.252C386.156 340.746 386.849 338.8 386.849 336.447H389.048C389.048 339.482 388.047 342.528 386.816 343.232L385.705 343.881C385.078 344.244 384.583 344.266 384.583 343.925V343.331C384.583 342.671 383.582 342.704 382.34 343.419C381.108 344.134 380.108 345.244 380.108 345.904V346.498C380.108 346.839 379.25 347.597 378.206 348.202L322.05 380.629L315.969 384.137C315.969 384.137 315.958 384.137 315.958 384.148C315.166 384.588 314.144 384.819 313.11 384.819V382.279C314.144 382.276 315.178 382.057 315.969 381.595Z" fill="#4F64D9"/>
<path opacity="0.6" d="M315.969 381.595L319.84 379.352L377.909 345.826C377.931 345.1 378.228 344.386 378.701 343.748C379.361 342.824 380.35 342.033 381.241 341.516C381.923 341.12 382.945 340.658 383.979 340.658C384.683 340.658 385.298 340.878 385.782 341.252C386.156 340.746 386.849 338.8 386.849 336.447H389.048C389.048 339.482 388.047 342.528 386.816 343.232L385.705 343.881C385.078 344.244 384.583 344.266 384.583 343.925V343.331C384.583 342.671 383.582 342.704 382.34 343.419C381.108 344.134 380.108 345.244 380.108 345.904V346.498C380.108 346.839 379.25 347.597 378.206 348.202L322.05 380.629L315.969 384.137C315.969 384.137 315.958 384.137 315.958 384.148C315.166 384.588 314.144 384.819 313.11 384.819V382.279C314.144 382.276 315.178 382.057 315.969 381.595Z" fill="white"/>
<path d="M216.534 326.472V329.056C216.534 329.65 216.908 330.233 217.667 330.683L217.711 330.705L304.182 380.626L310.252 384.134V384.145C310.252 384.145 310.263 384.134 310.263 384.145C311.055 384.585 312.077 384.816 313.111 384.816V382.276C312.077 382.276 311.044 382.056 310.252 381.594L306.392 379.362H306.381L217.71 328.154C216.87 327.667 216.537 327.096 216.534 326.472Z" fill="#4F64D9"/>
<path opacity="0.1" d="M216.534 326.472V329.056C216.534 329.65 216.908 330.233 217.667 330.683L217.711 330.705L304.182 380.626L310.252 384.134V384.145C310.252 384.145 310.263 384.134 310.263 384.145C311.055 384.585 312.077 384.816 313.111 384.816V382.276C312.077 382.276 311.044 382.056 310.252 381.594L306.392 379.362H306.381L217.71 328.154C216.87 327.667 216.537 327.096 216.534 326.472Z" fill="white"/>
<path d="M313.111 365.156V379.978C313.804 379.978 314.496 379.835 315.013 379.527L322.05 375.47L375.644 344.528L375.655 329.046L313.111 365.156Z" fill="white"/>
<path d="M219.316 312.859V324.273C219.316 325.483 220.174 326.967 221.218 327.572L304.182 375.47L311.208 379.527C311.725 379.835 312.418 379.978 313.11 379.978V366.728L219.316 312.859Z" fill="#F0F0F0"/>
<path d="M375.644 344.528C375.666 343.802 375.974 343.089 376.447 342.451C377.107 341.527 378.096 340.736 378.987 340.219C379.669 339.823 380.691 339.361 381.725 339.361C382.429 339.361 383.045 339.581 383.528 339.955V324.5L375.655 329.045L375.644 344.528Z" fill="#455A64"/>
<path d="M378.789 340.345C377.952 340.861 377.059 341.594 376.447 342.45C375.974 343.088 375.666 343.802 375.644 344.527L375.654 329.77H378.788V340.345H378.789Z" fill="#F5F5F5"/>
<path d="M284.092 271.031L380.108 326.472C380.108 326.472 380.108 327.044 380.108 327.758C380.108 328.473 381.109 328.737 382.34 328.022C383.582 327.307 384.583 326.417 384.583 325.185L384.704 323.964L286.874 267.489L286.478 267.258C286.379 267.445 286.313 267.654 286.313 267.852V268.446C286.314 269.162 285.324 270.305 284.092 271.031Z" fill="#4F64D9"/>
<path opacity="0.6" d="M284.092 271.031L380.108 326.472C380.108 326.472 380.108 327.044 380.108 327.758C380.108 328.473 381.109 328.737 382.34 328.022C383.582 327.307 384.583 326.417 384.583 325.185L384.704 323.964L286.874 267.489L286.478 267.258C286.379 267.445 286.313 267.654 286.313 267.852V268.446C286.314 269.162 285.324 270.305 284.092 271.031Z" fill="white"/>
<path d="M315.967 363.507L378.686 327.294C379.483 326.876 380.211 326.541 380.518 326.702L380.108 326.473L284.092 271.032C284.092 271.032 283.528 270.709 282.97 270.385C282.351 270.026 280.997 270.227 279.945 270.834L217.711 306.768C216.139 307.681 216.139 309.165 217.711 310.067L310.255 363.507C311.832 364.417 314.39 364.418 315.967 363.507Z" fill="#4F64D9"/>
<path opacity="0.8" d="M315.967 363.507L378.686 327.294C379.483 326.876 380.211 326.541 380.518 326.702L380.108 326.473L284.092 271.032C284.092 271.032 283.528 270.709 282.97 270.385C282.351 270.026 280.997 270.227 279.945 270.834L217.711 306.768C216.139 307.681 216.139 309.165 217.711 310.067L310.255 363.507C311.832 364.417 314.39 364.418 315.967 363.507Z" fill="white"/>
<path d="M286.479 267.259L286.875 267.49L384.705 323.965C384.705 323.965 384.771 323.811 384.914 323.701C385.002 323.646 385.112 323.591 385.244 323.514L385.948 323.107C386.212 322.953 386.509 322.777 386.817 322.601C387.224 322.37 387.598 322.414 387.928 322.7C387.972 322.722 388.005 322.755 388.038 322.799C388.148 322.909 388.247 323.052 388.335 323.206C388.434 323.371 388.522 323.558 388.588 323.756C388.665 323.954 388.731 324.174 388.786 324.394C388.841 324.636 388.885 324.878 388.929 325.142C388.962 325.285 388.973 325.439 388.984 325.593C388.995 325.714 389.006 325.824 389.017 325.956C389.039 326.231 389.05 326.517 389.05 326.814V324.065C389.05 322.548 387.763 320.579 386.191 319.667L293.639 266.227C292.056 265.314 289.779 265.161 288.548 265.864L287.382 266.546L287.338 266.568C287.261 266.623 287.063 266.733 286.843 266.854C286.843 266.854 286.832 266.854 286.832 266.865C286.698 266.941 286.567 267.084 286.479 267.259Z" fill="#4F64D9"/>
<path opacity="0.8" d="M286.479 267.259L286.875 267.49L384.705 323.965C384.705 323.965 384.771 323.811 384.914 323.701C385.002 323.646 385.112 323.591 385.244 323.514L385.948 323.107C386.212 322.953 386.509 322.777 386.817 322.601C387.224 322.37 387.598 322.414 387.928 322.7C387.972 322.722 388.005 322.755 388.038 322.799C388.148 322.909 388.247 323.052 388.335 323.206C388.434 323.371 388.522 323.558 388.588 323.756C388.665 323.954 388.731 324.174 388.786 324.394C388.841 324.636 388.885 324.878 388.929 325.142C388.962 325.285 388.973 325.439 388.984 325.593C388.995 325.714 389.006 325.824 389.017 325.956C389.039 326.231 389.05 326.517 389.05 326.814V324.065C389.05 322.548 387.763 320.579 386.191 319.667L293.639 266.227C292.056 265.314 289.779 265.161 288.548 265.864L287.382 266.546L287.338 266.568C287.261 266.623 287.063 266.733 286.843 266.854C286.843 266.854 286.832 266.854 286.832 266.865C286.698 266.941 286.567 267.084 286.479 267.259Z" fill="white"/>
<path d="M315.947 363.517C315.958 363.517 315.958 363.506 315.958 363.506L319.84 361.263L364.45 335.522L378.69 327.297C379.702 326.703 380.526 326.494 380.581 326.802C380.592 326.813 380.592 326.824 380.592 326.835V327.484C380.592 328.199 381.593 328.199 382.824 327.484C384.034 326.791 384.561 325.934 384.583 325.241V324.537C384.583 324.174 384.726 323.8 384.913 323.701C385.001 323.646 385.122 323.58 385.243 323.514C385.441 323.404 385.683 323.261 385.947 323.107C386.211 322.953 386.508 322.777 386.816 322.601C387.223 322.37 387.597 322.414 387.927 322.7C387.971 322.722 388.004 322.755 388.037 322.799C388.114 322.876 388.18 322.964 388.235 323.063C388.279 323.107 388.301 323.151 388.334 323.206C388.433 323.371 388.521 323.558 388.587 323.756C388.664 323.954 388.73 324.174 388.785 324.394C388.84 324.636 388.884 324.878 388.928 325.142C388.961 325.285 388.972 325.439 388.983 325.593C388.994 325.714 389.005 325.824 389.016 325.956C389.038 326.231 389.049 326.517 389.049 326.814V336.446H386.85V326.814C386.85 326.583 386.839 326.352 386.828 326.132L386.773 325.582C386.773 325.56 386.773 325.549 386.762 325.527C386.564 327.275 384.893 328.837 383.441 329.661C382.792 330.046 381.792 330.497 380.758 330.497C379.988 330.497 379.296 330.222 378.79 329.771L378.592 329.881C378.46 329.958 378.339 330.035 378.207 330.112L322.051 362.539L315.97 366.047C315.97 366.047 315.959 366.047 315.959 366.058C315.948 366.069 315.937 366.069 315.915 366.08C315.134 366.509 314.123 366.729 313.111 366.729V364.191C314.246 364.19 315.149 363.938 315.947 363.517Z" fill="#4F64D9"/>
<path opacity="0.6" d="M315.947 363.517C315.958 363.517 315.958 363.506 315.958 363.506L319.84 361.263L364.45 335.522L378.69 327.297C379.702 326.703 380.526 326.494 380.581 326.802C380.592 326.813 380.592 326.824 380.592 326.835V327.484C380.592 328.199 381.593 328.199 382.824 327.484C384.034 326.791 384.561 325.934 384.583 325.241V324.537C384.583 324.174 384.726 323.8 384.913 323.701C385.001 323.646 385.122 323.58 385.243 323.514C385.441 323.404 385.683 323.261 385.947 323.107C386.211 322.953 386.508 322.777 386.816 322.601C387.223 322.37 387.597 322.414 387.927 322.7C387.971 322.722 388.004 322.755 388.037 322.799C388.114 322.876 388.18 322.964 388.235 323.063C388.279 323.107 388.301 323.151 388.334 323.206C388.433 323.371 388.521 323.558 388.587 323.756C388.664 323.954 388.73 324.174 388.785 324.394C388.84 324.636 388.884 324.878 388.928 325.142C388.961 325.285 388.972 325.439 388.983 325.593C388.994 325.714 389.005 325.824 389.016 325.956C389.038 326.231 389.049 326.517 389.049 326.814V336.446H386.85V326.814C386.85 326.583 386.839 326.352 386.828 326.132L386.773 325.582C386.773 325.56 386.773 325.549 386.762 325.527C386.564 327.275 384.893 328.837 383.441 329.661C382.792 330.046 381.792 330.497 380.758 330.497C379.988 330.497 379.296 330.222 378.79 329.771L378.592 329.881C378.46 329.958 378.339 330.035 378.207 330.112L322.051 362.539L315.97 366.047C315.97 366.047 315.959 366.047 315.959 366.058C315.948 366.069 315.937 366.069 315.915 366.08C315.134 366.509 314.123 366.729 313.111 366.729V364.191C314.246 364.19 315.149 363.938 315.947 363.517Z" fill="white"/>
<path d="M216.534 308.386V310.97C216.534 311.564 216.908 312.147 217.667 312.597L217.711 312.619L304.182 362.54L310.252 366.048V366.059C310.252 366.059 310.263 366.048 310.263 366.059C311.055 366.499 312.077 366.73 313.111 366.73V364.19C312.077 364.19 311.044 363.97 310.252 363.508L306.392 361.276H306.381L217.71 310.068C216.87 309.58 216.537 309.01 216.534 308.386Z" fill="#4F64D9"/>
<path opacity="0.1" d="M216.534 308.386V310.97C216.534 311.564 216.908 312.147 217.667 312.597L217.711 312.619L304.182 362.54L310.252 366.048V366.059C310.252 366.059 310.263 366.048 310.263 366.059C311.055 366.499 312.077 366.73 313.111 366.73V364.19C312.077 364.19 311.044 363.97 310.252 363.508L306.392 361.276H306.381L217.71 310.068C216.87 309.58 216.537 309.01 216.534 308.386Z" fill="white"/>
<path d="M279.945 270.833C280.997 270.226 282.351 270.025 282.97 270.384C283.528 270.708 284.087 271.031 284.087 271.031C285.324 270.305 286.314 269.162 286.314 268.447V267.853C286.314 267.655 286.38 267.446 286.479 267.259C286.567 267.083 286.699 266.94 286.831 266.863C286.831 266.852 286.842 266.852 286.842 266.852C287.062 266.731 287.26 266.621 287.337 266.566L287.381 266.544L288.547 265.862C289.778 265.158 292.055 265.312 293.638 266.225L386.19 319.665C386.223 319.684 386.254 319.71 386.287 319.731L320.898 357.483C319.846 358.09 318.143 358.087 317.093 357.475L223.936 303.173L279.945 270.833Z" fill="#263238"/>
<path d="M326.133 352.033L323.655 350.609C323.655 350.609 325.077 350.157 325.733 350.463C326.39 350.77 326.133 352.033 326.133 352.033Z" fill="#4F64D9"/>
<path opacity="0.7" d="M326.133 352.033L323.655 350.609C323.655 350.609 325.077 350.157 325.733 350.463C326.39 350.77 326.133 352.033 326.133 352.033Z" fill="black"/>
<path d="M327.834 350.474C327.834 350.474 325.828 348.264 323.421 350.474C321.014 352.684 320.889 354.874 319.893 354.838C318.896 354.802 318.911 337.188 318.911 337.188L328.4 346.013L327.834 350.474Z" fill="#4F64D9"/>
<path opacity="0.7" d="M327.834 350.474C327.834 350.474 325.828 348.264 323.421 350.474C321.014 352.684 320.889 354.874 319.893 354.838C318.896 354.802 318.911 337.188 318.911 337.188L328.4 346.013L327.834 350.474Z" fill="black"/>
<path d="M228.405 286.417L228.249 286.327L229.774 285.446L295.248 247.645L390.656 309.391C392.234 310.302 392.513 311.615 391.28 312.324L389.048 313.607L327.845 348.958L327.411 348.642L228.405 286.417Z" fill="#4F64D9"/>
<path opacity="0.5" d="M228.405 286.417L228.249 286.327L229.774 285.446L295.248 247.645L390.656 309.391C392.234 310.302 392.513 311.615 391.28 312.324L389.048 313.607L327.845 348.958L327.411 348.642L228.405 286.417Z" fill="black"/>
<path d="M319.678 328.849L324.417 327.872V346.852C321.558 348.065 319.74 349.213 319.44 351.605L319.678 328.849Z" fill="#455A64"/>
<path d="M326.514 347.103L387.143 312.098C388.195 311.491 389.048 310.014 389.048 308.799V290.089L327.833 325.74C327.833 325.74 327.103 328.387 324.932 329.223C322.761 330.058 324.416 330.898 324.416 330.898V346.853C326.292 346.631 326.514 347.103 326.514 347.103Z" fill="#F0F0F0"/>
<path d="M320.924 328.2C321.551 327.837 322.045 327.815 322.045 328.156V328.75C322.045 329.41 323.046 329.377 324.288 328.662C325.519 327.947 326.534 326.838 326.534 326.179V325.583C326.534 325.242 327.378 324.484 328.422 323.879L229.776 267.358C229.172 267.708 228.249 268.245 228.249 268.245C227.994 268.495 227.874 268.918 227.874 269.062V269.656C227.874 270.316 226.873 271.426 225.642 272.141C224.399 272.856 223.399 272.889 223.399 272.229V271.635C223.399 271.294 222.904 271.316 222.278 271.679L320.924 328.2Z" fill="#4F64D9"/>
<path opacity="0.6" d="M320.924 328.2C321.551 327.837 322.045 327.815 322.045 328.156V328.75C322.045 329.41 323.046 329.377 324.288 328.662C325.519 327.947 326.534 326.838 326.534 326.179V325.583C326.534 325.242 327.378 324.484 328.422 323.879L229.776 267.358C229.172 267.708 228.249 268.245 228.249 268.245C227.994 268.495 227.874 268.918 227.874 269.062V269.656C227.874 270.316 226.873 271.426 225.642 272.141C224.399 272.856 223.399 272.889 223.399 272.229V271.635C223.399 271.294 222.904 271.316 222.278 271.679L320.924 328.2Z" fill="black"/>
<path d="M228.405 268.335L228.249 268.245L229.774 267.364L295.248 229.563L390.656 284.657C392.234 285.568 392.513 286.881 391.28 287.59L389.048 288.873L327.833 325.739L228.405 268.335Z" fill="#4F64D9"/>
<path opacity="0.5" d="M228.405 268.335L228.249 268.245L229.774 267.364L295.248 229.563L390.656 284.657C392.234 285.568 392.513 286.881 391.28 287.59L389.048 288.873L327.833 325.739L228.405 268.335Z" fill="black"/>
<path d="M223.38 271.056L321.948 327.964L318.497 330.663L220.248 273.939C220.674 272.929 221.115 272.397 221.563 272.105L223.38 271.056Z" fill="#4F64D9"/>
<path opacity="0.5" d="M223.38 271.056L321.948 327.964L318.497 330.663L220.248 273.939C220.674 272.929 221.115 272.397 221.563 272.105L223.38 271.056Z" fill="black"/>
<path d="M220.633 299.426C220.572 299.391 220.513 299.348 220.455 299.298C220.411 299.276 220.378 299.243 220.345 299.199C220.268 299.122 220.202 299.034 220.147 298.935C220.103 298.891 220.081 298.847 220.048 298.792C219.949 298.627 219.861 298.44 219.795 298.242C219.718 298.044 219.652 297.824 219.597 297.604C219.542 297.362 219.498 297.12 219.454 296.856C219.421 296.713 219.41 296.559 219.399 296.405C219.388 296.284 219.377 296.174 219.366 296.042C219.344 295.767 219.333 295.481 219.333 295.184V278.9C219.333 277.08 219.693 275.257 220.246 273.936L318.495 330.663L318.91 356.175L220.665 299.443L220.633 299.426Z" fill="#4F64D9"/>
<path opacity="0.7" d="M220.633 299.426C220.572 299.391 220.513 299.348 220.455 299.298C220.411 299.276 220.378 299.243 220.345 299.199C220.268 299.122 220.202 299.034 220.147 298.935C220.103 298.891 220.081 298.847 220.048 298.792C219.949 298.627 219.861 298.44 219.795 298.242C219.718 298.044 219.652 297.824 219.597 297.604C219.542 297.362 219.498 297.12 219.454 296.856C219.421 296.713 219.41 296.559 219.399 296.405C219.388 296.284 219.377 296.174 219.366 296.042C219.344 295.767 219.333 295.481 219.333 295.184V278.9C219.333 277.08 219.693 275.257 220.246 273.936L318.495 330.663L318.91 356.175L220.665 299.443L220.633 299.426Z" fill="black"/>
<path opacity="0.79" d="M318.496 330.664C318.496 330.664 241.121 294.449 234.078 291.131C229.432 288.942 227.148 293.54 228.248 298.302C229.209 302.462 233.316 306.749 233.316 306.749L220.665 299.444L220.632 299.426C220.571 299.391 220.512 299.348 220.454 299.298C220.41 299.276 220.377 299.243 220.344 299.199C220.267 299.122 220.201 299.034 220.146 298.935C220.102 298.891 220.08 298.847 220.047 298.792C219.948 298.627 219.86 298.44 219.794 298.242C219.717 298.044 219.651 297.824 219.596 297.604C219.541 297.362 219.497 297.12 219.453 296.856C219.42 296.713 219.409 296.559 219.398 296.405C219.387 296.284 219.376 296.174 219.365 296.042C219.343 295.767 219.332 295.481 219.332 295.184V278.9C219.332 277.08 219.692 275.257 220.245 273.936L318.496 330.664Z" fill="#263238"/>
<path d="M317.586 335.633H319.785C319.785 333.28 320.478 331.334 320.852 330.828C321.336 331.202 321.952 331.422 322.655 331.422C323.689 331.422 324.711 330.96 325.393 330.564C326.284 330.047 327.273 329.256 327.933 328.332C327.977 328.266 328.032 328.2 328.065 328.134C328.461 327.551 328.703 326.902 328.725 326.254L386.794 292.728L388.762 291.584L391.28 290.132C391.797 289.835 392.05 289.428 392.05 288.999V286.426C392.05 286.932 391.753 287.306 391.28 287.591L391.247 287.613L384.583 291.451L328.427 323.878C327.382 324.483 326.525 325.242 326.525 325.582V326.176C326.525 326.462 326.338 326.836 326.008 327.221C325.612 327.727 324.985 328.255 324.293 328.662C323.05 329.377 322.05 329.41 322.05 328.75V328.156C322.05 327.815 321.555 327.837 320.928 328.2L319.817 328.849C318.587 329.552 317.586 332.598 317.586 335.633Z" fill="#4F64D9"/>
<path d="M319.785 335.633V351.917C319.785 352.148 319.796 352.379 319.807 352.599L319.862 353.149C319.862 353.171 319.862 353.182 319.873 353.204C320.071 351.456 321.742 349.894 323.194 349.07C323.843 348.685 324.843 348.234 325.877 348.234C326.647 348.234 327.339 348.509 327.845 348.96L328.043 348.85C328.175 348.773 328.296 348.696 328.428 348.619L384.584 316.192C384.584 316.192 386.057 315.345 387.806 314.334C388.103 314.158 388.422 313.982 388.73 313.795C389.676 313.245 390.632 312.695 391.446 312.223C391.82 311.948 392.051 311.607 392.051 311.167V311.871V313.74C392.051 314.103 391.864 314.455 391.49 314.73C391.49 314.741 391.479 314.741 391.468 314.752C391.149 314.939 390.808 315.126 390.467 315.335C390.258 315.456 390.049 315.577 389.84 315.698C389.466 315.907 389.103 316.127 388.762 316.325C388.52 316.468 388.3 316.6 388.091 316.71C387.915 316.809 387.761 316.908 387.618 316.985C387.112 317.282 386.793 317.469 386.793 317.469L342.183 343.21L327.943 351.435C326.931 352.029 326.107 352.238 326.052 351.93C326.043 351.887 326.041 351.836 326.041 351.825V351.249C326.041 350.534 325.04 350.534 323.809 351.249C322.599 351.942 322.071 352.799 322.05 353.492V354.196C322.05 354.559 321.907 354.933 321.72 355.032C321.632 355.087 321.511 355.153 321.39 355.219C321.192 355.329 320.95 355.472 320.686 355.626C320.422 355.78 320.125 355.956 319.817 356.132C319.41 356.363 319.036 356.319 318.706 356.033C318.662 356.011 318.629 355.978 318.596 355.934C318.519 355.857 318.453 355.769 318.398 355.67V355.659C318.354 355.615 318.332 355.582 318.299 355.527C318.2 355.362 318.112 355.175 318.046 354.977C317.969 354.779 317.903 354.559 317.848 354.339C317.793 354.097 317.749 353.855 317.705 353.591C317.672 353.448 317.661 353.294 317.65 353.14C317.639 353.019 317.628 352.909 317.617 352.777C317.595 352.502 317.584 352.216 317.584 351.919V335.635H319.785V335.633Z" fill="#4F64D9"/>
<g opacity="0.6">
<path d="M317.586 335.633H319.785C319.785 333.28 320.478 331.334 320.852 330.828C321.336 331.202 321.952 331.422 322.655 331.422C323.689 331.422 324.711 330.96 325.393 330.564C326.284 330.047 327.273 329.256 327.933 328.332C327.977 328.266 328.032 328.2 328.065 328.134C328.461 327.551 328.703 326.902 328.725 326.254L386.794 292.728L388.762 291.584L391.28 290.132C391.797 289.835 392.05 289.428 392.05 288.999V286.426C392.05 286.932 391.753 287.306 391.28 287.591L391.247 287.613L384.583 291.451L328.427 323.878C327.382 324.483 326.525 325.242 326.525 325.582V326.176C326.525 326.462 326.338 326.836 326.008 327.221C325.612 327.727 324.985 328.255 324.293 328.662C323.05 329.377 322.05 329.41 322.05 328.75V328.156C322.05 327.815 321.555 327.837 320.928 328.2L319.817 328.849C318.587 329.552 317.586 332.598 317.586 335.633Z" fill="black"/>
<path d="M319.785 335.633V351.917C319.785 352.148 319.796 352.379 319.807 352.599L319.862 353.149C319.862 353.171 319.862 353.182 319.873 353.204C320.071 351.456 321.742 349.894 323.194 349.07C323.843 348.685 324.843 348.234 325.877 348.234C326.647 348.234 327.339 348.509 327.845 348.96L328.043 348.85C328.175 348.773 328.296 348.696 328.428 348.619L384.584 316.192C384.584 316.192 386.057 315.345 387.806 314.334C388.103 314.158 388.422 313.982 388.73 313.795C389.676 313.245 390.632 312.695 391.446 312.223C391.82 311.948 392.051 311.607 392.051 311.167V311.871V313.74C392.051 314.103 391.864 314.455 391.49 314.73C391.49 314.741 391.479 314.741 391.468 314.752C391.149 314.939 390.808 315.126 390.467 315.335C390.258 315.456 390.049 315.577 389.84 315.698C389.466 315.907 389.103 316.127 388.762 316.325C388.52 316.468 388.3 316.6 388.091 316.71C387.915 316.809 387.761 316.908 387.618 316.985C387.112 317.282 386.793 317.469 386.793 317.469L342.183 343.21L327.943 351.435C326.931 352.029 326.107 352.238 326.052 351.93C326.043 351.887 326.041 351.836 326.041 351.825V351.249C326.041 350.534 325.04 350.534 323.809 351.249C322.599 351.942 322.071 352.799 322.05 353.492V354.196C322.05 354.559 321.907 354.933 321.72 355.032C321.632 355.087 321.511 355.153 321.39 355.219C321.192 355.329 320.95 355.472 320.686 355.626C320.422 355.78 320.125 355.956 319.817 356.132C319.41 356.363 319.036 356.319 318.706 356.033C318.662 356.011 318.629 355.978 318.596 355.934C318.519 355.857 318.453 355.769 318.398 355.67V355.659C318.354 355.615 318.332 355.582 318.299 355.527C318.2 355.362 318.112 355.175 318.046 354.977C317.969 354.779 317.903 354.559 317.848 354.339C317.793 354.097 317.749 353.855 317.705 353.591C317.672 353.448 317.661 353.294 317.65 353.14C317.639 353.019 317.628 352.909 317.617 352.777C317.595 352.502 317.584 352.216 317.584 351.919V335.635H319.785V335.633Z" fill="black"/>
</g>
<path d="M220.25 273.934L313.627 327.847L384.21 287.096C385.266 286.491 385.266 285.502 384.21 284.897L291.812 231.545L229.784 267.359H229.773C229.168 267.711 228.244 268.25 228.244 268.25C227.991 268.492 227.87 268.921 227.87 269.064V269.658C227.87 270.318 226.869 271.428 225.638 272.143C225.572 272.187 225.506 272.209 225.44 272.242L223.384 271.054L222.405 271.615C222.361 271.637 222.328 271.648 222.273 271.681L222.284 271.692L221.558 272.11C221.119 272.395 220.668 272.933 220.25 273.934Z" fill="#263238"/>
<path d="M378.955 287.504L376.145 286.004L378.704 285.392C379.225 285.985 379.258 286.702 378.955 287.504Z" fill="#E0E0E0"/>
<path opacity="0.5" d="M378.955 287.504L376.145 286.004L378.704 285.392C379.225 285.985 379.258 286.702 378.955 287.504Z" fill="#E0E0E0"/>
<path d="M304.528 324.986C306.106 325.897 308.664 325.897 310.242 324.986L374.383 287.952L278.367 227.256L276.124 225.958L211.985 268.247C210.413 269.16 210.413 270.644 211.985 271.546L304.528 324.986Z" fill="#4F64D9"/>
<path d="M328.612 249.773L377.069 282.614L350.979 262.647L365.459 254.287L382.303 264.018C382.303 264.018 382.303 279.941 382.303 281.413C382.303 282.885 380.653 284.981 380.053 284.636C380.053 284.636 378.734 284.906 376.833 285.779C374.931 286.653 372.184 289.218 372.184 289.218L320.788 254.29L328.612 249.773Z" fill="#4F64D9"/>
<path opacity="0.2" d="M328.612 249.773L377.069 282.614L350.979 262.647L365.459 254.287L382.303 264.018C382.303 264.018 382.303 279.941 382.303 281.413C382.303 282.885 380.653 284.981 380.053 284.636C380.053 284.636 378.734 284.906 376.833 285.779C374.931 286.653 372.184 289.218 372.184 289.218L320.788 254.29L328.612 249.773Z" fill="black"/>
<path d="M307.385 303.289V323.366C308.078 323.366 308.77 323.223 309.287 322.915L316.324 318.858L369.918 287.916L369.929 267.179L307.385 303.289Z" fill="white"/>
<path d="M213.59 250.992V267.661C213.59 268.871 214.448 270.355 215.492 270.96L298.456 318.858L305.482 322.915C305.999 323.223 306.692 323.366 307.384 323.366V304.861L213.59 250.992Z" fill="#F0F0F0"/>
<path d="M369.918 287.916C369.94 287.19 370.248 286.477 370.721 285.839C371.381 284.915 372.37 284.124 373.261 283.607C373.943 283.211 374.965 282.749 375.999 282.749C376.703 282.749 377.318 282.801 377.802 283.175V262.634L369.929 267.179L369.918 287.916Z" fill="#455A64"/>
<path d="M373.063 283.733C372.226 284.249 371.333 284.981 370.721 285.838C370.248 286.476 369.94 287.189 369.918 287.915L369.928 267.904H373.062L373.063 283.733Z" fill="#F5F5F5"/>
<path d="M278.367 209.164L374.383 264.605C374.383 264.605 374.383 265.177 374.383 265.891C374.383 266.606 375.384 266.87 376.615 266.155C377.858 265.44 378.858 264.55 378.858 263.318L378.979 262.097L281.149 205.622L280.753 205.391C280.654 205.578 280.588 205.787 280.588 205.985V206.579C280.588 207.295 279.598 208.438 278.367 209.164Z" fill="#4F64D9"/>
<path opacity="0.2" d="M278.367 209.164L374.383 264.605C374.383 264.605 374.383 265.177 374.383 265.891C374.383 266.606 375.384 266.87 376.615 266.155C377.858 265.44 378.858 264.55 378.858 263.318L378.979 262.097L281.149 205.622L280.753 205.391C280.654 205.578 280.588 205.787 280.588 205.985V206.579C280.588 207.295 279.598 208.438 278.367 209.164Z" fill="black"/>
<path d="M310.242 301.639L372.961 265.426C373.758 265.008 374.486 264.673 374.793 264.834L374.383 264.605L278.367 209.164C278.367 209.164 277.803 208.841 277.245 208.517C276.626 208.158 275.272 208.359 274.22 208.966L211.986 244.901C210.414 245.814 210.414 247.298 211.986 248.2L304.53 301.64C306.106 302.55 308.664 302.551 310.242 301.639Z" fill="#4F64D9"/>
<path d="M280.753 205.393L281.149 205.624L378.979 262.099C378.979 262.099 379.045 261.945 379.188 261.835C379.276 261.78 379.386 261.725 379.518 261.648L380.222 261.241C380.486 261.087 380.783 260.911 381.091 260.735C381.498 260.504 381.872 260.548 382.202 260.834C382.246 260.856 382.279 260.889 382.312 260.933C382.422 261.043 382.521 261.186 382.609 261.34C382.708 261.505 382.796 261.692 382.862 261.89C382.939 262.088 383.005 262.308 383.06 262.528C383.115 262.77 383.159 263.012 383.203 263.276C383.236 263.419 383.247 263.573 383.258 263.727C383.269 263.848 383.28 263.958 383.291 264.09C383.313 264.365 383.324 264.651 383.324 264.948V262.199C383.324 260.682 382.038 258.713 380.465 257.801L287.913 204.361C286.33 203.448 284.053 203.295 282.822 203.998L281.656 204.68L281.612 204.702C281.535 204.757 281.337 204.867 281.117 204.988C281.117 204.988 281.106 204.988 281.106 204.999C280.973 205.074 280.841 205.217 280.753 205.393Z" fill="#4F64D9"/>
<path d="M310.244 324.983L314.115 322.74L372.184 289.214C372.206 288.488 372.503 287.774 372.976 287.136C373.636 286.212 374.625 285.421 375.516 284.904C376.198 284.508 377.22 284.046 378.254 284.046C378.958 284.046 379.573 284.266 380.057 284.64C380.431 284.134 381.124 282.188 381.124 279.835H383.323C383.323 282.87 382.322 285.916 381.091 286.62L379.98 287.269C379.353 287.632 378.858 287.654 378.858 287.313V286.719C378.858 286.059 377.857 286.092 376.615 286.807C375.383 287.522 374.383 288.632 374.383 289.292V289.886C374.383 290.227 373.525 290.986 372.481 291.59L316.325 324.017L310.244 327.525C310.244 327.525 310.233 327.525 310.233 327.536C309.441 327.976 308.419 328.207 307.385 328.207V325.667C308.418 325.664 309.452 325.444 310.244 324.983Z" fill="#4F64D9"/>
<path opacity="0.4" d="M310.244 324.983L314.115 322.74L372.184 289.214C372.206 288.488 372.503 287.774 372.976 287.136C373.636 286.212 374.625 285.421 375.516 284.904C376.198 284.508 377.22 284.046 378.254 284.046C378.958 284.046 379.573 284.266 380.057 284.64C380.431 284.134 381.124 282.188 381.124 279.835H383.323C383.323 282.87 382.322 285.916 381.091 286.62L379.98 287.269C379.353 287.632 378.858 287.654 378.858 287.313V286.719C378.858 286.059 377.857 286.092 376.615 286.807C375.383 287.522 374.383 288.632 374.383 289.292V289.886C374.383 290.227 373.525 290.986 372.481 291.59L316.325 324.017L310.244 327.525C310.244 327.525 310.233 327.525 310.233 327.536C309.441 327.976 308.419 328.207 307.385 328.207V325.667C308.418 325.664 309.452 325.444 310.244 324.983Z" fill="black"/>
<path d="M310.222 301.651C310.222 301.651 310.233 301.64 310.244 301.64L314.115 299.397L358.725 273.656L372.965 265.431C373.977 264.837 374.801 264.628 374.856 264.936C374.867 264.947 374.867 264.958 374.867 264.969V265.618C374.867 266.333 375.868 266.333 377.099 265.618C378.309 264.925 378.836 264.068 378.858 263.375V262.671C378.858 262.308 379.001 261.934 379.188 261.835C379.276 261.78 379.397 261.714 379.518 261.648C379.716 261.538 379.958 261.395 380.222 261.241C380.486 261.087 380.783 260.911 381.091 260.735C381.498 260.504 381.872 260.548 382.202 260.834C382.246 260.856 382.279 260.889 382.312 260.933C382.389 261.01 382.455 261.098 382.51 261.197C382.554 261.241 382.576 261.285 382.609 261.34C382.708 261.505 382.796 261.692 382.862 261.89C382.939 262.088 383.005 262.308 383.06 262.528C383.115 262.77 383.159 263.012 383.203 263.276C383.236 263.419 383.247 263.573 383.258 263.727C383.269 263.848 383.28 263.958 383.291 264.09C383.313 264.365 383.324 264.651 383.324 264.948V279.835H381.125V264.948C381.125 264.717 381.114 264.486 381.103 264.266L381.048 263.716C381.048 263.694 381.048 263.683 381.037 263.661C380.839 265.409 379.168 266.971 377.716 267.795C377.067 268.18 376.067 268.631 375.033 268.631C374.263 268.631 373.57 268.356 373.065 267.905L372.867 268.015C372.735 268.092 372.614 268.169 372.482 268.246L316.326 300.673L310.245 304.181C310.245 304.181 310.234 304.181 310.234 304.192C310.223 304.203 310.212 304.203 310.19 304.214C309.409 304.643 308.398 304.863 307.386 304.863V302.325C308.521 302.323 309.424 302.071 310.222 301.651Z" fill="#4F64D9"/>
<path opacity="0.4" d="M310.222 301.651C310.222 301.651 310.233 301.64 310.244 301.64L314.115 299.397L358.725 273.656L372.965 265.431C373.977 264.837 374.801 264.628 374.856 264.936C374.867 264.947 374.867 264.958 374.867 264.969V265.618C374.867 266.333 375.868 266.333 377.099 265.618C378.309 264.925 378.836 264.068 378.858 263.375V262.671C378.858 262.308 379.001 261.934 379.188 261.835C379.276 261.78 379.397 261.714 379.518 261.648C379.716 261.538 379.958 261.395 380.222 261.241C380.486 261.087 380.783 260.911 381.091 260.735C381.498 260.504 381.872 260.548 382.202 260.834C382.246 260.856 382.279 260.889 382.312 260.933C382.389 261.01 382.455 261.098 382.51 261.197C382.554 261.241 382.576 261.285 382.609 261.34C382.708 261.505 382.796 261.692 382.862 261.89C382.939 262.088 383.005 262.308 383.06 262.528C383.115 262.77 383.159 263.012 383.203 263.276C383.236 263.419 383.247 263.573 383.258 263.727C383.269 263.848 383.28 263.958 383.291 264.09C383.313 264.365 383.324 264.651 383.324 264.948V279.835H381.125V264.948C381.125 264.717 381.114 264.486 381.103 264.266L381.048 263.716C381.048 263.694 381.048 263.683 381.037 263.661C380.839 265.409 379.168 266.971 377.716 267.795C377.067 268.18 376.067 268.631 375.033 268.631C374.263 268.631 373.57 268.356 373.065 267.905L372.867 268.015C372.735 268.092 372.614 268.169 372.482 268.246L316.326 300.673L310.245 304.181C310.245 304.181 310.234 304.181 310.234 304.192C310.223 304.203 310.212 304.203 310.19 304.214C309.409 304.643 308.398 304.863 307.386 304.863V302.325C308.521 302.323 309.424 302.071 310.222 301.651Z" fill="black"/>
<path d="M210.808 246.519V249.103C210.808 249.697 211.182 250.28 211.941 250.73L211.985 250.752L298.456 300.673L304.526 304.181V304.192C304.526 304.192 304.537 304.181 304.537 304.192C305.329 304.632 306.351 304.863 307.385 304.863V302.323C306.351 302.323 305.318 302.103 304.526 301.641L300.666 299.409H300.655L211.984 248.201C211.145 247.713 210.811 247.143 210.808 246.519Z" fill="#4F64D9"/>
<path opacity="0.2" d="M210.808 246.519V249.103C210.808 249.697 211.182 250.28 211.941 250.73L211.985 250.752L298.456 300.673L304.526 304.181V304.192C304.526 304.192 304.537 304.181 304.537 304.192C305.329 304.632 306.351 304.863 307.385 304.863V302.323C306.351 302.323 305.318 302.103 304.526 301.641L300.666 299.409H300.655L211.984 248.201C211.145 247.713 210.811 247.143 210.808 246.519Z" fill="black"/>
<path d="M210.808 269.86V272.444C210.808 273.038 211.182 273.621 211.941 274.071L211.985 274.093L298.456 324.014L304.526 327.522V327.533C304.526 327.533 304.537 327.522 304.537 327.533C305.329 327.973 306.351 328.204 307.385 328.204V325.664C306.351 325.664 305.318 325.444 304.526 324.982L300.666 322.75H300.655L211.984 271.542C211.145 271.055 210.811 270.484 210.808 269.86Z" fill="#4F64D9"/>
<path opacity="0.2" d="M210.808 269.86V272.444C210.808 273.038 211.182 273.621 211.941 274.071L211.985 274.093L298.456 324.014L304.526 327.522V327.533C304.526 327.533 304.537 327.522 304.537 327.533C305.329 327.973 306.351 328.204 307.385 328.204V325.664C306.351 325.664 305.318 325.444 304.526 324.982L300.666 322.75H300.655L211.984 271.542C211.145 271.055 210.811 270.484 210.808 269.86Z" fill="black"/>
<path d="M250.747 179.128L241.574 195.491L254.952 202.61L264.688 188.114L250.747 179.128Z" fill="#FFA8A7"/>
<path d="M283.322 142.282C278.222 141.411 270.497 141.179 265.476 149.793C260.454 158.407 249.639 179.652 249.639 179.652C249.639 179.652 255.962 187.834 265.107 189.32L280.058 165.598L283.322 142.282Z" fill="#4F64D9"/>
<path d="M271.273 342.639H259.854V362.188H271.273V342.639Z" fill="#FFA8A7"/>
<path d="M238.205 337.877L226.792 338.27L226.22 317.582L237.633 317.19L238.205 337.877Z" fill="#FFA8A7"/>
<path d="M259.854 356.551V354.918C258.761 355.394 256.223 365.08 251.692 369.212C248.09 372.497 243.176 376.292 241.927 379.955C240.627 383.764 248.77 385.867 252.135 385.271C256.045 384.579 262.822 381.825 264.524 379.273C266.225 376.721 267.022 372.956 268.404 371.085C269.786 369.215 272.973 367.126 273.72 364.961C274.131 363.772 273.643 361.167 273.066 358.966C272.537 356.947 271.963 354.727 271.274 354.916C271.272 355.162 271.274 356.161 271.274 356.161C270.445 357.08 268.151 357.992 265.565 358.091C263.893 358.157 259.84 357.825 259.854 356.551Z" fill="#263238"/>
<path d="M226.671 334.749C226.078 334.77 225.595 335.606 224.288 337.022C222.707 338.733 220.122 340.578 217.571 341.855C213.295 343.995 204.982 347.288 201.219 348.983C198.868 350.042 198.979 352.881 201.408 354.497C203.838 356.113 209.704 357.277 216.747 355.702C220.584 354.844 225.579 351.3 228.74 351.491C231.901 351.682 237.817 351.637 240.151 350.028C242.485 348.42 241.551 344.984 240.891 342.032C240.171 338.81 239.141 333.881 238.074 334.101L238.109 335.114C236.736 337.193 229.747 338.042 226.731 336.512L226.671 334.749Z" fill="#263238"/>
<path d="M317.271 223.75C319.773 241.397 316.402 244.785 299.629 261.689C290.61 270.778 276.075 284.113 276.075 284.113C276.075 284.113 276.285 289.748 276.404 302.387C276.508 313.518 271.855 349.742 271.855 349.742C271.855 349.742 264.279 352.929 259.077 349.621C259.077 349.621 256.728 322.672 255.461 308.634C253.741 289.593 252.839 280.055 253.812 275.957C254.669 272.346 271.742 250.795 275.68 244.746L239.403 265.82C239.403 265.82 240.64 275.049 240.459 281.929C240.061 297.039 238.206 327.217 238.206 327.217C238.206 327.217 229.899 330.934 225.779 327.73C225.779 327.73 215.327 261.731 215.327 256.314C215.327 248.083 251.073 223.514 257.838 217.792C261.699 214.527 266.005 211.04 266.005 211.04L317.271 223.75Z" fill="#455A64"/>
<path d="M275.68 244.746C275.68 244.746 269.86 240.444 267.391 232.923C267.391 232.923 267.702 237.991 268.683 241.916C269.664 245.84 239.404 265.821 239.404 265.821L275.68 244.746Z" fill="#37474F"/>
<path d="M295.848 110.722C297.891 102.005 292.481 93.282 283.764 91.2387C275.046 89.1955 266.323 94.6059 264.28 103.323C262.237 112.04 267.647 120.764 276.365 122.807C285.082 124.85 293.805 119.44 295.848 110.722Z" fill="#263238"/>
<path d="M314.12 152.101C314.12 152.101 318.129 155.378 318.129 165.738V188.112L317.556 225.731C309.548 234.443 273.53 231.139 264.648 212.143C264.648 212.143 264.718 172.426 264.718 163.531C264.718 154.636 269.675 143.074 283.321 142.281L300.939 146.38L314.12 152.101Z" fill="#263238"/>
<path d="M308.081 118.54C308.081 118.54 305.454 130.882 304.401 132.91C303.347 134.938 301.171 135.514 301.171 135.514L301.355 126.832L308.081 118.54Z" fill="#263238"/>
<path d="M304.784 100.859C304.784 100.859 307.613 100.374 309.819 102.629C311.981 104.84 310.774 111.761 308.081 118.54L303.133 119.108L304.784 100.859Z" fill="#263238"/>
<path d="M301.648 119.112C302.64 119.705 304.056 117.799 305.28 116.518C306.503 115.238 310.498 113.488 312.491 117.687C314.521 121.966 310.732 127.62 307.587 128.607C302.167 130.308 301.354 126.832 301.354 126.832L300.94 146.381C296.269 151.599 280.296 150.354 283.307 145.864L283.322 139.914C283.322 139.914 278.411 140.659 276.016 140.289C272.03 139.673 269.523 136.528 268.314 132.214C266.372 125.284 265.635 119.689 267.282 106.061C269.088 91.123 286.462 90.968 295.844 96.873C305.226 102.778 301.648 119.112 301.648 119.112Z" fill="#FFA8A7"/>
<path d="M287.844 122.531H286.99C283.941 122.531 281.461 120.051 281.461 117.001C281.461 113.952 283.941 111.472 286.99 111.472H287.844C290.893 111.472 293.374 113.952 293.374 117.001C293.374 120.05 290.894 122.531 287.844 122.531ZM286.99 112.404C284.456 112.404 282.393 114.466 282.393 117.001C282.393 119.536 284.456 121.598 286.99 121.598H287.844C290.379 121.598 292.442 119.536 292.442 117.001C292.442 114.466 290.379 112.404 287.844 112.404H286.99Z" fill="#263238"/>
<path d="M270.984 122.531H270.13C267.081 122.531 264.601 120.051 264.601 117.001C264.601 113.952 267.081 111.472 270.13 111.472H270.984C274.033 111.472 276.514 113.952 276.514 117.001C276.514 120.05 274.033 122.531 270.984 122.531ZM270.13 112.404C267.596 112.404 265.534 114.466 265.534 117.001C265.534 119.536 267.597 121.598 270.13 121.598H270.984C273.519 121.598 275.581 119.536 275.581 117.001C275.581 114.466 273.519 112.404 270.984 112.404H270.13Z" fill="#263238"/>
<path d="M281.529 115.91C281.017 115.07 279.871 114.486 278.608 114.422C277.52 114.366 276.56 114.726 276.059 115.384L275.316 114.82C276.013 113.902 277.228 113.417 278.655 113.491C280.241 113.572 281.647 114.313 282.325 115.425L281.529 115.91Z" fill="#263238"/>
<path d="M304.626 115.866H292.862V116.798H304.626V115.866Z" fill="#263238"/>
<path d="M301.648 120.781C302.147 120.791 304.045 117.642 305.28 116.518C306.991 114.961 304.784 100.859 304.784 100.859C304.784 100.859 306.429 97.354 303.133 93.726C300.788 91.146 296.87 90.859 290.18 89.808C286.67 89.256 281.349 88.274 277.844 87.622C273.658 86.844 270.194 86.02 267.239 88.588C264.939 90.587 263.949 94.119 265.187 96.903C265.477 97.556 265.898 98.146 266.376 98.677C267.223 99.619 268.182 100.361 269.388 100.752C269.388 100.752 271.213 102.371 277.562 103.144C283.911 103.917 293.8 102.995 295.151 102.811C296.992 102.559 297.385 104.343 298.378 109.218C299.248 113.497 299.971 120.749 301.648 120.781Z" fill="#382626"/>
<path d="M304.774 101.955L310.773 98.734C309.922 97.015 307.888 96.342 306.232 97.232C304.575 98.122 303.922 100.236 304.774 101.955Z" fill="#263238"/>
<path d="M283.322 139.915C283.322 139.915 292.219 138.123 295.33 136.469C297.412 135.362 299.127 133.444 299.63 132.215C299.63 132.215 299.047 134.855 297.187 137.233C294.912 140.141 283.322 142.283 283.322 142.283V139.915Z" fill="#F28F8F"/>
<path d="M285.46 116.887C285.46 117.91 286.258 118.737 287.243 118.735C288.228 118.732 289.026 117.901 289.026 116.878C289.026 115.855 288.228 115.028 287.243 115.03C286.258 115.033 285.46 115.865 285.46 116.887Z" fill="#263238"/>
<path d="M288.323 109.506L292.137 111.611C292.7 110.515 292.301 109.155 291.248 108.574C290.195 107.993 288.886 108.41 288.323 109.506Z" fill="#263238"/>
<path d="M284.127 129.204L280.057 130.731C280.46 131.898 281.698 132.502 282.822 132.08C283.946 131.658 284.53 130.371 284.127 129.204Z" fill="#F28F8F"/>
<path d="M269.104 111.075L272.582 108.396C271.872 107.4 270.519 107.193 269.558 107.932C268.598 108.672 268.394 110.079 269.104 111.075Z" fill="#263238"/>
<path d="M270.631 116.38C270.631 117.403 271.429 118.23 272.414 118.227C273.398 118.224 274.197 117.393 274.197 116.37C274.197 115.347 273.399 114.52 272.414 114.522C271.43 114.525 270.631 115.357 270.631 116.38Z" fill="#263238"/>
<path d="M279.443 114.949L279.236 125.761L272.845 124.353L279.443 114.949Z" fill="#F28F8F"/>
<path d="M268.516 204.817V205.848C268.516 206.888 267.96 207.852 267.063 208.372L239.291 224.354C238.842 224.614 238.338 224.741 237.833 224.741C237.333 224.741 236.828 224.614 236.38 224.354L185.434 194.942C184.532 194.422 183.976 193.458 183.976 192.418V191.709L237.834 222.804L268.516 204.817Z" fill="#4F64D9"/>
<path opacity="0.6" d="M268.516 204.817V205.848C268.516 206.888 267.96 207.852 267.063 208.372L239.291 224.354C238.842 224.614 238.338 224.741 237.833 224.741C237.333 224.741 236.828 224.614 236.38 224.354L185.434 194.942C184.532 194.422 183.976 193.458 183.976 192.418V191.709L237.834 222.804L268.516 204.817Z" fill="black"/>
<path d="M183.974 191.708L214.182 174.269C214.719 173.959 215.381 173.959 215.918 174.269L268.323 204.529C268.58 204.678 268.58 205.049 268.323 205.197L237.832 222.804L183.974 191.708Z" fill="#4F64D9"/>
<path opacity="0.5" d="M183.974 191.708L214.182 174.269C214.719 173.959 215.381 173.959 215.918 174.269L268.323 204.529C268.58 204.678 268.58 205.049 268.323 205.197L237.832 222.804L183.974 191.708Z" fill="black"/>
<path d="M238.11 220.24L254.403 210.843L206.763 183.337L190.385 192.685L238.11 220.24Z" fill="#263238"/>
<path d="M246.118 194.1L245.818 194.273L237.832 198.883L223.631 190.683L223.335 190.515L231.621 185.732L246.118 194.1Z" fill="#263238"/>
<path d="M245.818 194.273L237.832 198.883L223.631 190.683L231.621 186.073L245.818 194.273Z" fill="#263238"/>
<path opacity="0.7" d="M237.832 222.803V224.741C237.332 224.741 236.827 224.614 236.379 224.354L185.433 194.942C184.531 194.422 183.975 193.458 183.975 192.418V191.709L237.832 222.803Z" fill="black"/>
<path d="M237.011 223.233C236.047 223.605 234.951 223.534 234.038 223.003L183.316 193.718C182.424 193.203 181.812 192.321 181.638 191.306L176.085 158.192C176.054 158.004 176.039 157.815 176.039 157.626C176.039 156.703 176.406 155.821 177.059 155.173L229.77 185.61C230.428 185.993 230.882 186.645 231.009 187.395L237.011 223.233Z" fill="#4F64D9"/>
<path opacity="0.5" d="M237.011 223.233C236.047 223.605 234.951 223.534 234.038 223.003L183.316 193.718C182.424 193.203 181.812 192.321 181.638 191.306L176.085 158.192C176.054 158.004 176.039 157.815 176.039 157.626C176.039 156.703 176.406 155.821 177.059 155.173L229.77 185.61C230.428 185.993 230.882 186.645 231.009 187.395L237.011 223.233Z" fill="black"/>
<path d="M237.832 222.805L237.485 223.004C237.332 223.091 237.174 223.167 237.011 223.234L231.009 187.396C230.882 186.646 230.428 185.994 229.77 185.611L177.059 155.174C177.263 154.97 177.503 154.792 177.763 154.639L230.581 185.132C231.239 185.514 231.693 186.167 231.82 186.917L237.832 222.805Z" fill="#E0E0E0"/>
<path d="M208.444 192.664C208.072 190.447 205.783 187.502 203.332 186.087C200.88 184.672 199.194 185.322 199.566 187.539C199.938 189.756 202.227 192.701 204.679 194.116C207.13 195.531 208.816 194.881 208.444 192.664Z" fill="#4F64D9"/>
<path d="M218.834 214.219C218.832 214.18 218.747 212.399 217.98 209.971C217.205 207.516 214.879 198.084 209.582 196.663C208.954 196.494 208.279 196.429 207.644 196.602C206.171 197.003 205.499 198.53 205.211 199.898C204.788 201.906 205.063 203.975 205.177 206C204.365 205.071 203.408 204.271 202.353 203.633C201.35 203.027 200.31 202.395 199.102 202.471C198.776 202.491 198.409 202.582 198.252 202.869C198.058 203.225 198.295 203.658 198.553 203.97C199.083 204.612 199.731 205.149 200.256 205.795C200.695 206.336 201.041 206.944 201.41 207.535C202.081 208.611 202.832 209.634 203.581 210.657C205.111 212.743 206.752 214.737 208.919 216.181C210.261 217.075 213.463 218.936 216.921 219.368C220.787 219.851 224.549 219.793 226.992 218.936L218.834 214.219Z" fill="#FFA8A7"/>
<path d="M313.063 152.387C309.487 150.553 304.27 157.84 305.931 165.46C307.592 173.08 315.771 199.865 315.771 199.865C315.771 199.865 278.819 203.173 275.681 203.556C273.493 203.823 271.042 202.711 269.015 202.039C266.249 201.122 263.467 200.483 260.744 199.477C260.256 199.297 259.747 199.113 259.229 199.163C258.711 199.213 258.183 199.571 258.12 200.087C258.082 200.396 258.211 200.699 258.348 200.978C259.216 202.749 260.541 204.294 262.159 205.421C262.912 205.945 263.745 206.386 264.402 207.037C264.837 207.468 265.78 208.655 265.436 209.308L250.75 217.759C250.75 217.759 254.136 220.701 266.374 217.271C274.827 214.902 279.238 212.699 279.238 212.699C279.238 212.699 322.784 214.51 330.647 212.123C333.427 211.279 334.433 209.31 332.554 200.345C330.372 189.932 324.204 170.995 322.8 166.028C319.729 155.174 318.976 155.42 313.063 152.387Z" fill="#FFA8A7"/>
<path d="M311.222 150.843C311.222 150.843 317.117 152.498 319.657 155.82C322.107 159.023 332.038 191.488 332.038 191.488C332.038 191.488 324.419 198.534 313.381 196.5C313.381 196.5 305.496 174.146 304.659 168.179C303.132 158.924 307.651 151.643 311.222 150.843Z" fill="#4F64D9"/>
<path d="M279.377 172.517C278.903 170.018 280.465 168.672 282.866 169.511C285.267 170.35 287.599 173.055 288.073 175.555C288.547 178.053 279.851 175.016 279.377 172.517Z" fill="#4F64D9"/>
<path d="M295.87 180.305L288.775 175.799C289.14 177.722 286.549 177.453 284.219 176.64C281.89 175.826 279.039 174.194 278.675 172.272L272.492 172.193C271.926 172.186 271.913 172.929 272.463 173.544C273.993 175.254 277.547 178.277 285.026 180.889C292.515 183.505 295.383 182.694 296.459 181.877C296.842 181.585 296.521 180.718 295.87 180.305Z" fill="#4F64D9"/>
</svg>
