<svg width="32" height="26" viewBox="0 0 32 26" fill="none" xmlns="http://www.w3.org/2000/svg">
<path d="M29.2092 25.9H2.79046C1.78374 25.9 0.964844 25.0833 0.964844 24.0793V1.92062C0.964844 0.916645 1.78374 0.0999756 2.79046 0.0999756H29.2092C30.2159 0.0999756 31.0348 0.916645 31.0348 1.92062V24.0756C31.0348 25.0796 30.2159 25.8962 29.2092 25.8962V25.9ZM2.79046 1.22383C2.40355 1.22383 2.09176 1.53477 2.09176 1.92062V24.0756C2.09176 24.4614 2.4073 24.7724 2.79046 24.7724H29.2092C29.5961 24.7724 29.9079 24.4614 29.9079 24.0756V1.92062C29.9079 1.53477 29.5924 1.22383 29.2092 1.22383H2.79046Z" fill="#131C50"/>
<path d="M9.85625 5.79418C10.46 5.79418 10.9494 5.30611 10.9494 4.70404C10.9494 4.10197 10.46 3.6139 9.85625 3.6139C9.25254 3.6139 8.76313 4.10197 8.76313 4.70404C8.76313 5.30611 9.25254 5.79418 9.85625 5.79418Z" fill="#131C50"/>
<path d="M6.09233 5.79418C6.69604 5.79418 7.18545 5.30611 7.18545 4.70404C7.18545 4.10197 6.69604 3.6139 6.09233 3.6139C5.48862 3.6139 4.99922 4.10197 4.99922 4.70404C4.99922 5.30611 5.48862 5.79418 6.09233 5.79418Z" fill="#131C50"/>
<path d="M13.3121 5.79418C13.9158 5.79418 14.4053 5.30611 14.4053 4.70404C14.4053 4.10197 13.9158 3.6139 13.3121 3.6139C12.7084 3.6139 12.219 4.10197 12.219 4.70404C12.219 5.30611 12.7084 5.79418 13.3121 5.79418Z" fill="#131C50"/>
<path d="M30.4714 7.91078H1.5283V9.03463H30.4714V7.91078Z" fill="#131C50"/>
<path d="M11.2048 11.8068V12.807C10.8817 12.807 10.6601 12.852 10.5437 12.9382C10.4272 13.0243 10.3671 13.2079 10.3671 13.4889V15.1484C10.3746 15.4556 10.3483 15.7103 10.2845 15.9126C10.2206 16.1149 10.1079 16.2723 9.94265 16.3921C9.77736 16.5083 9.54071 16.5944 9.23269 16.6469C9.54071 16.7331 9.78112 16.8417 9.95016 16.9728C10.1192 17.1002 10.2394 17.2575 10.307 17.4411C10.3784 17.6246 10.4122 17.8457 10.4122 18.1004V20.4118C10.4122 20.6815 10.4723 20.8614 10.5887 20.9438C10.7052 21.0262 10.9268 21.0711 11.2499 21.0711V22.0714C10.6827 22.1463 10.2244 22.1238 9.87127 22.0114C9.51817 21.899 9.25898 21.7117 9.0937 21.457C8.92842 21.2023 8.84578 20.8913 8.84578 20.5317V17.9131C8.84578 17.737 8.82699 17.6059 8.78567 17.5235C8.74435 17.4411 8.68049 17.3736 8.5941 17.3324C8.5077 17.2875 8.38749 17.2388 8.24099 17.1788V16.1224C8.39501 16.07 8.51146 16.0288 8.5941 15.9913C8.67298 15.9538 8.72933 15.8902 8.75938 15.8003C8.78943 15.7103 8.80446 15.5567 8.80446 15.3432V13.354C8.80446 12.9869 8.8871 12.6759 9.05238 12.4249C9.21766 12.1739 9.47685 11.9904 9.82995 11.8742C10.1831 11.7619 10.6413 11.7394 11.2086 11.8143L11.2048 11.8068Z" fill="#131C50"/>
<path d="M21.5236 11.8068C22.0984 11.7319 22.5604 11.7544 22.9135 11.8668C23.2666 11.9791 23.522 12.1627 23.6836 12.4174C23.8451 12.6684 23.9277 12.9794 23.9277 13.3465V15.3357C23.9277 15.5493 23.9428 15.6991 23.9728 15.7928C24.0029 15.8864 24.0592 15.9501 24.1456 15.9838C24.2282 16.0213 24.3484 16.0662 24.5025 16.1149V17.1714C24.356 17.2313 24.2358 17.28 24.1456 17.3249C24.0554 17.3699 23.9878 17.4336 23.9465 17.516C23.9052 17.6022 23.8864 17.7295 23.8864 17.9056V20.5242C23.8864 20.8838 23.8038 21.191 23.6422 21.4495C23.4807 21.708 23.2215 21.8916 22.8722 22.0039C22.5191 22.1163 22.057 22.1388 21.4823 22.0639V21.0636C21.8129 21.0636 22.0383 21.0224 22.1547 20.9363C22.2712 20.8501 22.3313 20.674 22.3313 20.4043V18.0929C22.3388 17.8382 22.3763 17.6172 22.4402 17.4336C22.5041 17.25 22.6243 17.0927 22.7933 16.9653C22.9623 16.8379 23.199 16.7293 23.4995 16.6394C23.199 16.587 22.9661 16.5045 22.8008 16.3847C22.6355 16.2685 22.5228 16.1074 22.459 15.9051C22.3951 15.7028 22.3688 15.4481 22.3763 15.1409V13.4814C22.3763 13.2041 22.3162 13.0206 22.1998 12.9307C22.0833 12.8408 21.858 12.7996 21.5274 12.7996V11.7993L21.5236 11.8068Z" fill="#131C50"/>
</svg>
