<svg width="40" height="40" viewBox="0 0 40 40" fill="none" xmlns="http://www.w3.org/2000/svg">
<path d="M12.4357 30H2.44771C2.19943 30 2 29.7998 2 29.5506V19.7937C2 19.5444 2.19943 19.3442 2.44771 19.3442H12.4317C12.6799 19.3442 12.8794 19.5444 12.8794 19.7937V29.5506C12.8794 29.7998 12.6799 30 12.4317 30H12.4357ZM3.56292 28.6844H11.3165C11.5647 28.6844 11.7642 28.4842 11.7642 28.2349V21.1134C11.7642 20.8641 11.5647 20.6639 11.3165 20.6639H3.56292C3.31464 20.6639 3.11521 20.8641 3.11521 21.1134V28.2349C3.11521 28.4842 3.31464 28.6844 3.56292 28.6844Z" fill="#131C50"/>
<path d="M24.992 30H15.008C14.7598 30 14.5603 29.7998 14.5603 29.5506V10.4494C14.5603 10.2002 14.7598 10 15.008 10H24.992C25.2402 10 25.4397 10.2002 25.4397 10.4494V29.5465C25.4397 29.7957 25.2402 29.9959 24.992 29.9959V30ZM16.1232 28.6844H23.8768C24.125 28.6844 24.3245 28.4842 24.3245 28.2349V11.7692C24.3245 11.5199 24.125 11.3197 23.8768 11.3197H16.1232C15.875 11.3197 15.6755 11.5199 15.6755 11.7692V28.2308C15.6755 28.4801 15.875 28.6803 16.1232 28.6803V28.6844Z" fill="#131C50"/>
<path d="M37.5523 30H27.5683C27.3201 30 27.1206 29.7998 27.1206 29.5506V15.4423C27.1206 15.1931 27.3201 14.9928 27.5683 14.9928H37.5523C37.8006 14.9928 38 15.1931 38 15.4423V29.5506C38 29.7998 37.8006 30 37.5523 30ZM28.6835 28.6844H36.4371C36.6854 28.6844 36.8848 28.4842 36.8848 28.2349V16.762C36.8848 16.5128 36.6854 16.3126 36.4371 16.3126H28.6835C28.4353 16.3126 28.2358 16.5128 28.2358 16.762V28.2349C28.2358 28.4842 28.4353 28.6844 28.6835 28.6844Z" fill="#131C50"/>
</svg>
