<svg width="40" height="40" viewBox="0 0 40 40" fill="none" xmlns="http://www.w3.org/2000/svg">
<path d="M30.6667 29C27.4512 29 24.572 27.3452 22.951 24.4904C22.9208 24.4331 22.9019 24.4102 22.8906 24.3987C22.8868 24.3987 22.8754 24.3987 22.8566 24.3987H22.849C20.956 24.4102 19.0365 24.4102 17.1434 24.3987C17.1246 24.3987 17.1132 24.3987 17.1057 24.3987C17.1057 24.4025 17.0868 24.4255 17.0641 24.4675C15.0048 27.8573 12.0198 29.3554 8.18838 28.9159C5.83059 28.6484 3.65417 27.3414 2.21078 25.3389C0.752277 23.3096 0.189279 20.7796 0.665371 18.3911C1.50042 14.1987 5.5661 11.0229 10.1268 11H29.9337C30.0282 11.0153 30.1264 11.0268 30.2209 11.0382C30.4211 11.065 30.6101 11.0917 30.7876 11.0917C33.4742 11.1376 35.968 12.4025 37.6268 14.5656C39.2817 16.7172 39.8787 19.4611 39.2628 22.0866C38.424 25.6752 35.507 28.4153 32.0043 28.9045C31.5547 28.9694 31.105 29 30.663 29H30.6667ZM22.8603 23.386C23.412 23.386 23.6614 23.707 23.8201 23.9898C25.4562 26.8713 28.5394 28.3694 31.8683 27.9032C34.9176 27.4752 37.5587 24.9873 38.2918 21.8535C38.8359 19.5261 38.3069 17.0955 36.837 15.1847C35.3634 13.2662 33.153 12.1427 30.7725 12.1045C30.5345 12.1045 30.3078 12.0701 30.0848 12.0395C30.0055 12.028 29.9261 12.0166 29.8468 12.0089H10.1268C6.03463 12.028 2.38837 14.8561 1.64401 18.586C1.22081 20.6994 1.72335 22.9389 3.01938 24.7389C4.29652 26.5159 6.22356 27.6701 8.30174 27.907C11.7137 28.3006 14.3738 26.9631 16.2102 23.9325C16.3689 23.6764 16.6182 23.3822 17.1472 23.3822C19.0403 23.3936 20.9522 23.3936 22.8414 23.3822H22.8566L22.8603 23.386Z" fill="#131C50"/>
<path d="M13.6294 18.4599V20.749H10.225V24.2H7.97679V20.772H4.56479V18.4828H7.95412V15.0318H10.2174V18.4599H13.6294Z" fill="#131C50"/>
<path d="M34.9176 20.7338C34.9024 21.2382 34.6115 21.5172 34.1052 21.5325C33.6971 21.5478 33.289 21.5439 32.8772 21.5325C32.76 21.5325 32.6202 21.4904 32.5371 21.4178C32.0648 20.9783 31.6038 20.5236 31.0748 20.0153C31.6038 19.4955 32.0383 19.0599 32.4918 18.6395C32.5862 18.5516 32.7336 18.4828 32.8583 18.479C33.2815 18.4637 33.7084 18.4637 34.1316 18.479C34.6077 18.4981 34.8987 18.7809 34.9138 19.2624C34.9289 19.7554 34.9289 20.2522 34.9138 20.7452L34.9176 20.7338Z" fill="#131C50"/>
<path d="M31.8796 23.7911C31.8645 24.2994 31.5811 24.5898 31.0824 24.6089C30.6101 24.6242 30.134 24.6242 29.6617 24.6089C29.1553 24.5936 28.8719 24.307 28.8531 23.8025C28.8379 23.386 28.8342 22.9732 28.8531 22.5605C28.8606 22.4153 28.9248 22.2471 29.0193 22.1439C29.4312 21.6854 29.8657 21.2459 30.372 20.7185C30.8708 21.2459 31.3129 21.7006 31.7361 22.1707C31.8192 22.2662 31.8683 22.4191 31.8759 22.549C31.891 22.9656 31.891 23.3783 31.8759 23.7949L31.8796 23.7911Z" fill="#131C50"/>
<path d="M30.3191 19.2127C29.8732 18.7465 29.4349 18.307 29.0231 17.8484C28.9248 17.7452 28.8644 17.5732 28.8606 17.4318C28.8379 17.0344 28.8455 16.6369 28.853 16.2357C28.8682 15.693 29.1478 15.4064 29.673 15.3911C30.1302 15.3758 30.5874 15.3796 31.0446 15.3911C31.6 15.4064 31.8683 15.693 31.8834 16.2624C31.8834 16.2777 31.8834 16.293 31.8834 16.3083C32.197 17.6994 31.2448 18.4064 30.3153 19.2089L30.3191 19.2127Z" fill="#131C50"/>
<path d="M29.6276 19.9771C29.11 20.4968 28.649 20.9707 28.1767 21.4331C28.1049 21.5019 27.9764 21.5287 27.8782 21.5325C27.4512 21.5439 27.0243 21.5478 26.6011 21.5325C26.1212 21.5134 25.834 21.2306 25.8189 20.749C25.8038 20.2522 25.8038 19.7554 25.8189 19.2662C25.834 18.7809 26.1136 18.4904 26.5859 18.4752C27.0129 18.4561 27.4399 18.4599 27.8669 18.4752C27.9802 18.4752 28.12 18.5172 28.2031 18.5936C28.6717 19.0369 29.1327 19.4955 29.6314 19.9809L29.6276 19.9771Z" fill="#131C50"/>
</svg>
