<svg width="40" height="40" viewBox="0 0 40 40" fill="none" xmlns="http://www.w3.org/2000/svg">
<path d="M6.78917 32.9005C5.78236 32.9005 4.96338 32.0837 4.96338 31.0795V8.92047C4.96338 7.9163 5.78236 7.09949 6.78917 7.09949H33.2106C34.2174 7.09949 35.0364 7.9163 35.0364 8.92047V31.0795C35.0364 32.0837 34.2174 32.9005 33.2106 32.9005H6.78917ZM6.78917 8.2198C6.40222 8.2198 6.09041 8.53079 6.09041 8.91672V31.0758C6.09041 31.4617 6.40598 31.7727 6.78917 31.7727H33.2106C33.5975 31.7727 33.9093 31.4617 33.9093 31.0758V8.91672C33.9093 8.53079 33.5938 8.2198 33.2106 8.2198H6.78917Z" fill="#131C50"/>
<path d="M13.8519 12.7947C14.4557 12.7947 14.9451 12.3066 14.9451 11.7044C14.9451 11.1022 14.4557 10.6141 13.8519 10.6141C13.2481 10.6141 12.7587 11.1022 12.7587 11.7044C12.7587 12.3066 13.2481 12.7947 13.8519 12.7947Z" fill="#131C50"/>
<path d="M10.0876 12.7947C10.6914 12.7947 11.1808 12.3066 11.1808 11.7044C11.1808 11.1022 10.6914 10.6141 10.0876 10.6141C9.48385 10.6141 8.9944 11.1022 8.9944 11.7044C8.9944 12.3066 9.48385 12.7947 10.0876 12.7947Z" fill="#131C50"/>
<path d="M17.3119 12.7947C17.9157 12.7947 18.4051 12.3066 18.4051 11.7044C18.4051 11.1022 17.9157 10.6141 17.3119 10.6141C16.7081 10.6141 16.2187 11.1022 16.2187 11.7044C16.2187 12.3066 16.7081 12.7947 17.3119 12.7947Z" fill="#131C50"/>
<path d="M34.4691 14.9117H5.52314V16.0358H34.4691V14.9117Z" fill="#131C50"/>
<path d="M15.1255 22.4879L11.1959 23.908L15.1255 25.3168V26.8568L9.51659 24.6761V23.1474L15.1255 20.9405V22.4879Z" fill="#131C50"/>
<path d="M22.9734 18.7373L17.7364 28.8801H16.1623L21.3993 18.7373H22.9734Z" fill="#131C50"/>
<path d="M24.014 20.9442L29.5966 23.1511V24.6798L24.014 26.8605V25.3206L27.9323 23.9117L24.014 22.4917V20.9442Z" fill="#131C50"/>
</svg>
