<svg width="213" height="27" viewBox="0 0 213 27" fill="none" xmlns="http://www.w3.org/2000/svg">
<path d="M210.847 16.724C210.586 16.724 210.323 16.6967 210.068 16.7298C209.606 16.7882 209.375 16.5916 209.215 16.1692C208.426 14.059 207.611 11.9585 206.808 9.85412C206.446 8.90803 206.097 7.95804 205.726 7.01585C205.237 5.7797 204.115 5.1918 202.953 5.56167C202.222 5.79332 201.782 6.3345 201.494 7.00806C200.527 9.26817 199.569 11.5341 198.603 13.7942C198 15.2056 197.042 16.2548 195.478 16.5838C193.259 17.051 191.079 16.3736 190.111 13.9831C188.691 10.479 187.319 6.95745 185.922 3.44367C185.789 3.10884 185.869 2.97062 186.246 2.98036C186.889 2.99593 187.533 2.99982 188.177 2.98036C188.542 2.97062 188.711 3.14388 188.831 3.45924C189.504 5.23852 190.19 7.01195 190.871 8.78928C191.364 10.076 191.865 11.3589 192.344 12.6496C192.715 13.6502 193.412 14.24 194.485 14.314C195.042 14.3529 195.618 14.1933 195.914 13.6891C196.484 12.7235 197.032 11.7405 197.491 10.7223C198.187 9.18446 198.801 7.60959 199.449 6.05029C200.131 4.40533 201.313 3.32103 203.102 3.03097C204.838 2.75065 206.641 3.36385 207.572 5.05942C208.232 6.26053 208.709 7.56287 209.223 8.83795C210.207 11.2791 211.162 13.7339 212.124 16.1848C212.332 16.7123 212.322 16.722 211.751 16.724C211.71 16.724 211.668 16.724 211.627 16.724C211.366 16.724 211.107 16.724 210.845 16.724H210.847Z" fill="white"/>
<path d="M169.733 8.82237C169.733 10.5491 169.738 12.2739 169.733 14.0006C169.727 15.2036 168.925 16.3677 167.798 16.6422C166.243 17.0199 164.737 16.9342 163.548 15.6825C163.219 15.3341 162.957 14.9019 162.745 14.4678C161.4 11.7346 160.078 8.99174 158.749 6.2508C158.702 6.15346 158.647 6.05807 158.596 5.96463C158.435 5.67652 158.171 5.56751 157.867 5.64732C157.559 5.72908 157.355 5.94711 157.317 6.28C157.307 6.37344 157.317 6.47077 157.317 6.56616C157.317 9.77236 157.317 12.9805 157.317 16.1867C157.317 16.7396 157.256 16.8019 156.71 16.8038C156.245 16.8038 155.778 16.798 155.312 16.8058C155.023 16.8096 154.88 16.6753 154.864 16.3989C154.859 16.3035 154.857 16.2081 154.857 16.1147C154.857 12.8131 154.857 9.5115 154.857 6.20797C154.857 5.23462 155.122 4.35667 155.874 3.68506C156.687 2.95894 157.686 2.92196 158.688 3.03097C160.025 3.17892 160.909 3.97122 161.49 5.13729C162.863 7.88407 164.234 10.6328 165.62 13.3737C165.736 13.6034 165.919 13.8468 166.135 13.9714C166.691 14.2867 167.248 13.9636 167.319 13.329C167.333 13.2083 167.323 13.0837 167.323 12.963C167.323 9.8366 167.323 6.71216 167.323 3.58578C167.323 3.0699 167.392 3.00177 167.914 2.99982C168.352 2.99788 168.792 2.99788 169.23 2.99982C169.575 3.00177 169.742 3.14972 169.738 3.52348C169.725 5.28913 169.733 7.05673 169.733 8.82237Z" fill="white"/>
<path d="M171.274 9.75484C171.147 7.96388 171.777 6.40459 172.934 5.03801C173.827 3.98096 175.005 3.37943 176.347 3.103C178.022 2.75843 179.707 2.71561 181.355 3.24511C183.786 4.02573 185.276 5.70378 185.755 8.16829C186.068 9.77431 186.058 11.4017 185.347 12.9494C184.416 14.9778 182.875 16.3035 180.653 16.6481C178.664 16.9576 176.635 17.0199 174.76 16.0719C172.786 15.0771 171.671 13.4438 171.345 11.2772C171.323 11.1292 171.28 10.9832 171.276 10.8353C171.266 10.4829 171.272 10.1286 171.272 9.75484H171.274ZM178.56 14.6605C181.286 14.9603 183.546 12.6087 183.448 9.71201C183.373 7.49279 181.696 5.06526 178.487 5.10614C175.805 5.14118 173.774 7.10929 173.676 9.70617C173.574 12.3731 175.585 14.9311 178.56 14.6624V14.6605Z" fill="white"/>
<path d="M150.371 9.86191C150.371 7.74391 150.379 5.62591 150.363 3.50791C150.361 3.13025 150.461 2.95894 150.864 2.97841C151.369 3.00372 151.875 2.99398 152.382 2.98814C152.685 2.98425 152.793 3.13609 152.789 3.41836C152.781 3.8661 152.789 4.31384 152.789 4.76158C152.789 8.54984 152.789 12.3381 152.789 16.1264C152.789 16.7123 152.777 16.724 152.19 16.724C151.738 16.724 151.284 16.7045 150.835 16.7298C150.469 16.7493 150.363 16.6072 150.365 16.2568C150.377 14.1252 150.371 11.9935 150.371 9.86191Z" fill="white"/>
<path d="M158.619 19.9866V23.551H157.146V17.7596C157.645 17.7596 158.148 17.746 158.647 17.7713C158.751 17.7772 158.88 17.9037 158.939 18.0088C159.613 19.169 160.29 20.3254 160.929 21.5051C161.115 21.8496 161.178 22.2584 161.314 22.6867C161.769 20.9405 162.891 19.5895 163.68 18.0672C163.806 17.8258 163.969 17.7421 164.234 17.7538C164.654 17.7713 165.076 17.7577 165.52 17.7577V23.5471H164.071V20.0431C163.986 20.0665 163.941 20.0723 163.939 20.082C163.873 21.0612 163.266 21.799 162.787 22.5913C162.144 23.6503 162.144 23.6445 160.897 23.5939C160.626 23.5822 160.44 23.5024 160.296 23.2571C160.023 22.7899 159.682 22.3597 159.436 21.8788C159.136 21.289 158.906 20.6621 158.617 19.9866H158.619Z" fill="white"/>
<path d="M201.519 23.5725C200.944 23.5725 200.368 23.5958 199.795 23.5666C199.182 23.5355 198.693 23.224 198.367 22.7256C197.546 21.4642 197.535 19.7686 198.44 18.5325C198.821 18.0127 199.377 17.7596 200.033 17.7577C200.938 17.7538 201.841 17.7577 202.747 17.7577C204.025 17.7577 204.744 18.295 205.101 19.5194C205.425 20.6252 205.329 21.6861 204.718 22.675C204.349 23.2746 203.787 23.5686 203.078 23.5744C202.558 23.5783 202.038 23.5744 201.517 23.5744L201.519 23.5725ZM201.547 19.0873C201.205 19.0873 200.861 19.0834 200.52 19.0873C199.983 19.0912 199.559 19.3501 199.451 19.8504C199.359 20.2787 199.298 20.7459 199.371 21.1722C199.498 21.9217 199.805 22.2837 200.673 22.2643C201.331 22.2487 201.987 22.2604 202.644 22.2506C203.065 22.2429 203.383 22.0501 203.546 21.6608C203.815 21.0223 203.819 20.3721 203.565 19.7277C203.399 19.3034 203.069 19.099 202.615 19.0912C202.26 19.0853 201.902 19.0912 201.547 19.0912V19.0873Z" fill="white"/>
<path d="M171.704 23.5569V19.4163H172.832C172.849 19.5895 172.867 19.7706 172.896 20.0781C173.273 19.3384 173.878 19.3832 174.479 19.3851C175.903 19.3929 177.329 19.3871 178.752 19.3871C179.872 19.3871 180.465 19.8718 180.553 20.9853C180.62 21.8204 180.567 22.6633 180.567 23.5374H179.434C179.422 23.3856 179.408 23.2298 179.391 23.0176C178.589 23.9521 177.541 23.5316 176.59 23.5549C176.101 23.5666 175.864 23.1675 175.756 22.7003C175.591 21.982 175.98 21.1021 176.926 21.1702C177.661 21.2228 178.401 21.18 179.133 21.18C179.22 20.777 179.041 20.6368 178.701 20.6368C177.044 20.6368 175.386 20.6368 173.729 20.6368C173.409 20.6368 173.189 20.7828 173.169 21.104C173.132 21.7387 173.124 22.3752 173.106 23.0118C173.101 23.1948 173.106 23.3778 173.106 23.5569H171.704ZM179.145 21.8613C178.572 21.8613 178.026 21.8477 177.48 21.873C177.362 21.8788 177.252 22.0268 177.14 22.1085C177.244 22.1922 177.344 22.3421 177.452 22.348C177.888 22.3733 178.326 22.3616 178.762 22.348C179.039 22.3402 179.188 22.1961 179.145 21.8613Z" fill="white"/>
<path d="M186.924 17.5981H188.31V19.9808C188.996 19.1963 189.807 19.3053 190.59 19.4844C191.233 19.6304 191.625 20.1112 191.682 20.7595C191.753 21.5829 191.745 22.4122 191.775 23.2396C191.783 23.4771 191.682 23.5919 191.437 23.588C191.095 23.5822 190.755 23.588 190.351 23.588C190.351 22.9184 190.357 22.2721 190.347 21.6238C190.343 21.4253 190.323 21.217 190.259 21.0281C190.094 20.5395 189.787 20.6252 188.886 20.6524C188.503 20.6641 188.322 20.9425 188.322 21.3201C188.322 21.9041 188.322 22.4881 188.322 23.0722C188.322 23.2201 188.322 23.3661 188.322 23.5744H186.928V17.5981H186.924Z" fill="white"/>
<path d="M169.52 21.1819C169.568 20.7809 169.391 20.6329 169.03 20.6368C168.181 20.6427 167.331 20.6368 166.447 20.6368V19.3949C167.482 19.3949 168.509 19.3403 169.528 19.4124C170.335 19.4688 170.854 20.0684 170.934 21.0106C171.005 21.8438 170.95 22.6867 170.95 23.551H169.799C169.786 23.3758 169.774 23.2045 169.758 23.004C168.939 23.9618 167.859 23.5725 166.871 23.5491C166.355 23.5374 166.031 22.8911 166.088 22.2117C166.137 21.616 166.543 21.1897 167.093 21.1839C167.9 21.1761 168.707 21.1819 169.519 21.1819H169.52ZM169.526 21.8613C168.955 21.8613 168.409 21.8477 167.863 21.871C167.743 21.8769 167.631 22.0151 167.515 22.091C167.627 22.1806 167.733 22.3382 167.851 22.346C168.258 22.3772 168.67 22.3577 169.079 22.3538C169.373 22.3519 169.532 22.2098 169.526 21.8574V21.8613Z" fill="white"/>
<path d="M184.756 23.5627C184.756 23.2824 184.764 23.004 184.756 22.7256C184.736 22.1728 184.779 21.6043 184.662 21.0729C184.501 20.3351 183.839 20.7167 183.389 20.6466C183.061 20.596 182.831 20.7673 182.808 21.1196C182.772 21.6589 182.749 22.1981 182.727 22.7373C182.717 22.9943 182.727 23.2512 182.727 23.5413H181.327V19.4182H182.452C182.482 19.5584 182.509 19.6888 182.539 19.827C183.456 19.2664 184.397 19.2041 185.357 19.6343C185.85 19.8543 186.078 20.2748 186.101 20.8043C186.142 21.7095 186.182 22.6147 186.223 23.5627H184.756Z" fill="white"/>
<path d="M195.783 21.1819C195.765 20.9892 195.751 20.8354 195.734 20.6583C196.15 20.5356 196.562 20.413 196.994 20.2845C197.372 21.3649 197.144 22.4512 197.211 23.5491H196.062C196.036 23.3875 196.011 23.222 195.969 22.9534C195.636 23.5666 195.131 23.6094 194.599 23.5978C194.147 23.588 193.695 23.5997 193.244 23.5783C192.778 23.5569 192.46 23.2512 192.413 22.7918C192.387 22.5524 192.385 22.3071 192.409 22.0677C192.468 21.4817 192.81 21.1878 193.412 21.1858C194.19 21.1819 194.97 21.1858 195.785 21.1858L195.783 21.1819ZM195.759 21.8613C195.202 21.8613 194.644 21.8496 194.086 21.871C193.972 21.8749 193.864 21.9976 193.752 22.0657C193.854 22.165 193.951 22.3421 194.061 22.348C194.497 22.3772 194.936 22.3636 195.372 22.348C195.649 22.3382 195.799 22.1942 195.759 21.8613Z" fill="white"/>
<path d="M195.926 19.426C195.852 19.7803 195.797 20.1112 195.702 20.4324C195.677 20.5181 195.537 20.6271 195.449 20.6291C194.536 20.6427 193.623 20.6388 192.682 20.6388V19.4279H195.926V19.426Z" fill="white"/>
<path d="M135 0V26.4906" stroke="white" stroke-width="3" stroke-miterlimit="10"/>
<path d="M32.7823 22.0972L30.1684 19.4564V11.1885H27.3267V7.65675H30.1684V3.80952H34.6872V7.65675H39.5457V11.1885H34.6872V17.9921L35.0564 18.3651H39.7735V22.0972H32.7823Z" fill="white"/>
<path d="M42.3579 22.0972V7.65675H45.9674V8.80556H46.5075L47.8429 7.65675H53.0706V11.3889H48.2121L46.8767 12.4802V22.0972H42.3579Z" fill="white"/>
<path d="M54.7752 5.38889V2H59.4059V5.3869H54.7752V5.38889ZM54.8322 22.0972V7.65675H59.351V22.0972H54.8322Z" fill="white"/>
<path d="M63.7539 22.0972V5.50397H60.9122V2H68.2726V22.0952H63.7539V22.0972Z" fill="white"/>
<path d="M72.3064 22.0972V2H76.8251V8.51587H77.1099L78.1605 7.65476H84.1836L87.3375 10.8413V22.0952H82.8188V12.3631L81.8525 11.3869H78.2725L76.8232 12.5635V22.0952H72.3044L72.3064 22.0972Z" fill="white"/>
<path d="M92.85 22.0972L90.2361 19.4563V15.7817L92.9364 13.0536H100.835V12.1349L100.01 11.2738H92.1686V7.65675H102.426L105.352 10.6131V22.0972H101.742V20.9206H101.287L99.8943 22.0972H92.848H92.85ZM99.527 18.6528L100.835 17.5913V15.9841H95.4639L94.753 16.7024V18.1369L95.2636 18.6528H99.527Z" fill="white"/>
<path d="M108.763 22.0972V18.6528H117.885L118.396 18.1369V17.1329L117.885 16.5873H111.151L108.537 13.9742V10.2698L111.151 7.65675H122.119V11.1012H113.566L113.056 11.6171V12.621L113.566 13.1369H120.3L122.914 15.7778V19.4524L120.3 22.0933H108.765L108.763 22.0972Z" fill="white"/>
<path d="M17.3073 3.09127H3.24032L0 6.62103L0.170853 20.748L3.32477 23.7639H16.8811L20.4631 20.748L20.634 6.44841L17.3092 3.08929L17.3073 3.09127ZM17.9121 19.496L17.2326 20.0675H15.204L14.5913 19.4841L14.5873 19.1587H6.97946L5.21987 17.381V14.4722L6.97946 12.6944H12.4193L13.3796 11.7242V10.1885L12.4193 9.21825H6.04468L6.04075 9.59722L5.36126 10.1706H3.33262L2.71991 9.58532L2.69438 7.45833L3.30709 6.78968H5.43393L6.06432 7.42857L6.06039 7.84524H13.14L14.8996 9.62302V12.2897L13.14 14.0675H7.70019L6.73987 15.0377V16.8155L7.70019 17.7857H14.5716L14.5677 17.3571L15.1804 16.6885H17.3053L17.9376 17.3254L17.9121 19.496Z" fill="white"/>
</svg>
