<svg width="256" height="120" viewBox="0 0 256 120" fill="none" xmlns="http://www.w3.org/2000/svg">
<rect x="0.5" y="0.5" width="255" height="119" rx="7.5" fill="white"/>
<rect x="0.5" y="0.5" width="255" height="119" rx="7.5" stroke="#D6D3D1"/>
<path d="M141.209 64.9H114.79C113.784 64.9 112.965 64.0833 112.965 63.0793V40.9206C112.965 39.9166 113.784 39.1 114.79 39.1H141.209C142.216 39.1 143.035 39.9166 143.035 40.9206V63.0756C143.035 64.0796 142.216 64.8962 141.209 64.8962V64.9ZM114.79 40.2238C114.404 40.2238 114.092 40.5348 114.092 40.9206V63.0756C114.092 63.4614 114.407 63.7724 114.79 63.7724H141.209C141.596 63.7724 141.908 63.4614 141.908 63.0756V40.9206C141.908 40.5348 141.592 40.2238 141.209 40.2238H114.79Z" fill="#131C50"/>
<path d="M121.856 44.7942C122.46 44.7942 122.949 44.3061 122.949 43.704C122.949 43.102 122.46 42.6139 121.856 42.6139C121.253 42.6139 120.763 43.102 120.763 43.704C120.763 44.3061 121.253 44.7942 121.856 44.7942Z" fill="#131C50"/>
<path d="M118.092 44.7942C118.696 44.7942 119.185 44.3061 119.185 43.704C119.185 43.102 118.696 42.6139 118.092 42.6139C117.489 42.6139 116.999 43.102 116.999 43.704C116.999 44.3061 117.489 44.7942 118.092 44.7942Z" fill="#131C50"/>
<path d="M125.312 44.7942C125.916 44.7942 126.405 44.3061 126.405 43.704C126.405 43.102 125.916 42.6139 125.312 42.6139C124.708 42.6139 124.219 43.102 124.219 43.704C124.219 44.3061 124.708 44.7942 125.312 44.7942Z" fill="#131C50"/>
<path d="M142.471 46.9108H113.528V48.0346H142.471V46.9108Z" fill="#131C50"/>
<path d="M123.205 50.8068V51.807C122.882 51.807 122.66 51.852 122.544 51.9382C122.427 52.0243 122.367 52.2079 122.367 52.4889V54.1484C122.375 54.4556 122.348 54.7103 122.284 54.9126C122.221 55.1149 122.108 55.2723 121.943 55.3921C121.777 55.5083 121.541 55.5944 121.233 55.6469C121.541 55.7331 121.781 55.8417 121.95 55.9728C122.119 56.1002 122.239 56.2575 122.307 56.4411C122.378 56.6246 122.412 56.8457 122.412 57.1004V59.4118C122.412 59.6815 122.472 59.8614 122.589 59.9438C122.705 60.0262 122.927 60.0711 123.25 60.0711V61.0714C122.683 61.1463 122.224 61.1238 121.871 61.0114C121.518 60.899 121.259 60.7117 121.094 60.457C120.928 60.2023 120.846 59.8913 120.846 59.5317V56.9131C120.846 56.737 120.827 56.6059 120.786 56.5235C120.744 56.4411 120.68 56.3736 120.594 56.3324C120.508 56.2875 120.387 56.2388 120.241 56.1788V55.1224C120.395 55.07 120.511 55.0288 120.594 54.9913C120.673 54.9538 120.729 54.8902 120.759 54.8003C120.789 54.7103 120.804 54.5567 120.804 54.3432V52.354C120.804 51.9869 120.887 51.6759 121.052 51.4249C121.218 51.1739 121.477 50.9904 121.83 50.8742C122.183 50.7619 122.641 50.7394 123.209 50.8143L123.205 50.8068Z" fill="#131C50"/>
<path d="M133.524 50.8068C134.098 50.7319 134.56 50.7544 134.914 50.8668C135.267 50.9791 135.522 51.1627 135.684 51.4174C135.845 51.6684 135.928 51.9794 135.928 52.3465V54.3357C135.928 54.5493 135.943 54.6991 135.973 54.7928C136.003 54.8864 136.059 54.9501 136.146 54.9838C136.228 55.0213 136.348 55.0662 136.502 55.1149V56.1714C136.356 56.2313 136.236 56.28 136.146 56.3249C136.055 56.3699 135.988 56.4336 135.947 56.516C135.905 56.6022 135.886 56.7295 135.886 56.9056V59.5242C135.886 59.8838 135.804 60.191 135.642 60.4495C135.481 60.708 135.222 60.8916 134.872 61.0039C134.519 61.1163 134.057 61.1388 133.482 61.0639V60.0636C133.813 60.0636 134.038 60.0224 134.155 59.9363C134.271 59.8501 134.331 59.674 134.331 59.4043V57.0929C134.339 56.8382 134.376 56.6172 134.44 56.4336C134.504 56.25 134.624 56.0927 134.793 55.9653C134.962 55.8379 135.199 55.7293 135.5 55.6394C135.199 55.587 134.966 55.5045 134.801 55.3847C134.636 55.2685 134.523 55.1074 134.459 54.9051C134.395 54.7028 134.369 54.4481 134.376 54.1409V52.4814C134.376 52.2041 134.316 52.0206 134.2 51.9307C134.083 51.8408 133.858 51.7996 133.527 51.7996V50.7993L133.524 50.8068Z" fill="#131C50"/>
<path d="M33.7269 98V86.8H38.0949C39.0762 86.8 39.9135 86.9547 40.6069 87.264C41.3002 87.5733 41.8335 88.0213 42.2069 88.608C42.5802 89.1947 42.7669 89.8933 42.7669 90.704C42.7669 91.5147 42.5802 92.2133 42.2069 92.8C41.8335 93.376 41.3002 93.824 40.6069 94.144C39.9135 94.4533 39.0762 94.608 38.0949 94.608H34.6069L35.3269 93.856V98H33.7269ZM35.3269 94.016L34.6069 93.216H38.0469C39.0709 93.216 39.8442 92.9973 40.3669 92.56C40.9002 92.1227 41.1669 91.504 41.1669 90.704C41.1669 89.904 40.9002 89.2853 40.3669 88.848C39.8442 88.4107 39.0709 88.192 38.0469 88.192H34.6069L35.3269 87.392V94.016ZM44.7373 98V89.52H46.2093V91.824L46.0653 91.248C46.2999 90.6613 46.6946 90.2133 47.2493 89.904C47.8039 89.5947 48.4866 89.44 49.2973 89.44V90.928C49.2333 90.9173 49.1693 90.912 49.1053 90.912C49.0519 90.912 48.9986 90.912 48.9453 90.912C48.1239 90.912 47.4733 91.1573 46.9933 91.648C46.5133 92.1387 46.2733 92.848 46.2733 93.776V98H44.7373ZM54.7443 98.096C53.8909 98.096 53.1336 97.9093 52.4723 97.536C51.8109 97.1627 51.2883 96.6507 50.9043 96C50.5203 95.3387 50.3283 94.592 50.3283 93.76C50.3283 92.9173 50.5203 92.1707 50.9043 91.52C51.2883 90.8693 51.8109 90.3627 52.4723 90C53.1336 89.6267 53.8909 89.44 54.7443 89.44C55.5869 89.44 56.3389 89.6267 57.0003 90C57.6723 90.3627 58.1949 90.8693 58.5683 91.52C58.9523 92.16 59.1443 92.9067 59.1443 93.76C59.1443 94.6027 58.9523 95.3493 58.5683 96C58.1949 96.6507 57.6723 97.1627 57.0003 97.536C56.3389 97.9093 55.5869 98.096 54.7443 98.096ZM54.7443 96.752C55.2883 96.752 55.7736 96.6293 56.2003 96.384C56.6376 96.1387 56.9789 95.792 57.2243 95.344C57.4696 94.8853 57.5923 94.3573 57.5923 93.76C57.5923 93.152 57.4696 92.6293 57.2243 92.192C56.9789 91.744 56.6376 91.3973 56.2003 91.152C55.7736 90.9067 55.2883 90.784 54.7443 90.784C54.2003 90.784 53.7149 90.9067 53.2883 91.152C52.8616 91.3973 52.5203 91.744 52.2643 92.192C52.0083 92.6293 51.8803 93.152 51.8803 93.76C51.8803 94.3573 52.0083 94.8853 52.2643 95.344C52.5203 95.792 52.8616 96.1387 53.2883 96.384C53.7149 96.6293 54.2003 96.752 54.7443 96.752ZM64.9805 101.2C64.2018 101.2 63.4445 101.088 62.7085 100.864C61.9832 100.651 61.3912 100.341 60.9325 99.936L61.6685 98.752C62.0632 99.0933 62.5485 99.36 63.1245 99.552C63.7005 99.7547 64.3032 99.856 64.9325 99.856C65.9352 99.856 66.6712 99.6213 67.1405 99.152C67.6098 98.6827 67.8445 97.968 67.8445 97.008V95.216L68.0045 93.536L67.9245 91.84V89.52H69.3805V96.848C69.3805 98.3413 69.0072 99.44 68.2605 100.144C67.5138 100.848 66.4205 101.2 64.9805 101.2ZM64.7885 97.648C63.9672 97.648 63.2312 97.4773 62.5805 97.136C61.9405 96.784 61.4285 96.2987 61.0445 95.68C60.6712 95.0613 60.4845 94.3467 60.4845 93.536C60.4845 92.7147 60.6712 92 61.0445 91.392C61.4285 90.7733 61.9405 90.2933 62.5805 89.952C63.2312 89.6107 63.9672 89.44 64.7885 89.44C65.5138 89.44 66.1752 89.5893 66.7725 89.888C67.3698 90.176 67.8445 90.624 68.1965 91.232C68.5592 91.84 68.7405 92.608 68.7405 93.536C68.7405 94.4533 68.5592 95.216 68.1965 95.824C67.8445 96.432 67.3698 96.8907 66.7725 97.2C66.1752 97.4987 65.5138 97.648 64.7885 97.648ZM64.9645 96.304C65.5298 96.304 66.0312 96.1867 66.4685 95.952C66.9058 95.7173 67.2472 95.392 67.4925 94.976C67.7485 94.56 67.8765 94.08 67.8765 93.536C67.8765 92.992 67.7485 92.512 67.4925 92.096C67.2472 91.68 66.9058 91.36 66.4685 91.136C66.0312 90.9013 65.5298 90.784 64.9645 90.784C64.3992 90.784 63.8925 90.9013 63.4445 91.136C63.0072 91.36 62.6605 91.68 62.4045 92.096C62.1592 92.512 62.0365 92.992 62.0365 93.536C62.0365 94.08 62.1592 94.56 62.4045 94.976C62.6605 95.392 63.0072 95.7173 63.4445 95.952C63.8925 96.1867 64.3992 96.304 64.9645 96.304ZM72.3154 98V89.52H73.7874V91.824L73.6434 91.248C73.878 90.6613 74.2727 90.2133 74.8274 89.904C75.382 89.5947 76.0647 89.44 76.8754 89.44V90.928C76.8114 90.9173 76.7474 90.912 76.6834 90.912C76.63 90.912 76.5767 90.912 76.5234 90.912C75.702 90.912 75.0514 91.1573 74.5714 91.648C74.0914 92.1387 73.8514 92.848 73.8514 93.776V98H72.3154ZM83.4075 98V96.208L83.3275 95.872V92.816C83.3275 92.1653 83.1355 91.664 82.7515 91.312C82.3782 90.9493 81.8128 90.768 81.0555 90.768C80.5542 90.768 80.0635 90.8533 79.5835 91.024C79.1035 91.184 78.6982 91.4027 78.3675 91.68L77.7275 90.528C78.1648 90.176 78.6875 89.9093 79.2955 89.728C79.9142 89.536 80.5595 89.44 81.2315 89.44C82.3942 89.44 83.2902 89.7227 83.9195 90.288C84.5488 90.8533 84.8635 91.7173 84.8635 92.88V98H83.4075ZM80.6235 98.096C79.9942 98.096 79.4395 97.9893 78.9595 97.776C78.4902 97.5627 78.1275 97.2693 77.8715 96.896C77.6155 96.512 77.4875 96.08 77.4875 95.6C77.4875 95.1413 77.5942 94.7253 77.8075 94.352C78.0315 93.9787 78.3888 93.68 78.8795 93.456C79.3808 93.232 80.0528 93.12 80.8955 93.12H83.5835V94.224H80.9595C80.1915 94.224 79.6742 94.352 79.4075 94.608C79.1408 94.864 79.0075 95.1733 79.0075 95.536C79.0075 95.952 79.1728 96.288 79.5035 96.544C79.8342 96.7893 80.2928 96.912 80.8795 96.912C81.4555 96.912 81.9568 96.784 82.3835 96.528C82.8208 96.272 83.1355 95.8987 83.3275 95.408L83.6315 96.464C83.4288 96.9653 83.0715 97.3653 82.5595 97.664C82.0475 97.952 81.4022 98.096 80.6235 98.096ZM98.314 89.44C98.9967 89.44 99.5993 89.5733 100.122 89.84C100.645 90.1067 101.05 90.512 101.338 91.056C101.637 91.6 101.786 92.288 101.786 93.12V98H100.25V93.296C100.25 92.4747 100.058 91.856 99.674 91.44C99.29 91.024 98.7513 90.816 98.058 90.816C97.546 90.816 97.098 90.9227 96.714 91.136C96.33 91.3493 96.0313 91.664 95.818 92.08C95.6153 92.496 95.514 93.0133 95.514 93.632V98H93.978V93.296C93.978 92.4747 93.786 91.856 93.402 91.44C93.0287 91.024 92.49 90.816 91.786 90.816C91.2847 90.816 90.842 90.9227 90.458 91.136C90.074 91.3493 89.7753 91.664 89.562 92.08C89.3487 92.496 89.242 93.0133 89.242 93.632V98H87.706V89.52H89.178V91.776L88.938 91.2C89.2047 90.6453 89.6153 90.2133 90.17 89.904C90.7247 89.5947 91.37 89.44 92.106 89.44C92.9167 89.44 93.6153 89.6427 94.202 90.048C94.7887 90.4427 95.1727 91.0453 95.354 91.856L94.73 91.6C94.986 90.9493 95.434 90.4267 96.074 90.032C96.714 89.6373 97.4607 89.44 98.314 89.44ZM109.876 98V96.208L109.796 95.872V92.816C109.796 92.1653 109.604 91.664 109.22 91.312C108.847 90.9493 108.282 90.768 107.524 90.768C107.023 90.768 106.532 90.8533 106.052 91.024C105.572 91.184 105.167 91.4027 104.836 91.68L104.196 90.528C104.634 90.176 105.156 89.9093 105.764 89.728C106.383 89.536 107.028 89.44 107.7 89.44C108.863 89.44 109.759 89.7227 110.388 90.288C111.018 90.8533 111.332 91.7173 111.332 92.88V98H109.876ZM107.092 98.096C106.463 98.096 105.908 97.9893 105.428 97.776C104.959 97.5627 104.596 97.2693 104.34 96.896C104.084 96.512 103.956 96.08 103.956 95.6C103.956 95.1413 104.063 94.7253 104.276 94.352C104.5 93.9787 104.858 93.68 105.348 93.456C105.85 93.232 106.522 93.12 107.364 93.12H110.052V94.224H107.428C106.66 94.224 106.143 94.352 105.876 94.608C105.61 94.864 105.476 95.1733 105.476 95.536C105.476 95.952 105.642 96.288 105.972 96.544C106.303 96.7893 106.762 96.912 107.348 96.912C107.924 96.912 108.426 96.784 108.852 96.528C109.29 96.272 109.604 95.8987 109.796 95.408L110.1 96.464C109.898 96.9653 109.54 97.3653 109.028 97.664C108.516 97.952 107.871 98.096 107.092 98.096ZM117.871 98.096C117.007 98.096 116.233 97.9093 115.551 97.536C114.879 97.1627 114.351 96.6507 113.967 96C113.583 95.3493 113.391 94.6027 113.391 93.76C113.391 92.9173 113.583 92.1707 113.967 91.52C114.351 90.8693 114.879 90.3627 115.551 90C116.233 89.6267 117.007 89.44 117.871 89.44C118.639 89.44 119.321 89.5947 119.919 89.904C120.527 90.2027 120.996 90.6507 121.327 91.248L120.159 92C119.881 91.584 119.54 91.28 119.135 91.088C118.74 90.8853 118.313 90.784 117.855 90.784C117.3 90.784 116.804 90.9067 116.367 91.152C115.929 91.3973 115.583 91.744 115.327 92.192C115.071 92.6293 114.943 93.152 114.943 93.76C114.943 94.368 115.071 94.896 115.327 95.344C115.583 95.792 115.929 96.1387 116.367 96.384C116.804 96.6293 117.3 96.752 117.855 96.752C118.313 96.752 118.74 96.656 119.135 96.464C119.54 96.2613 119.881 95.952 120.159 95.536L121.327 96.272C120.996 96.8587 120.527 97.312 119.919 97.632C119.321 97.9413 118.639 98.096 117.871 98.096ZM117.119 101.584C116.841 101.584 116.585 101.552 116.351 101.488C116.116 101.435 115.897 101.349 115.695 101.232L116.031 100.448C116.201 100.544 116.372 100.613 116.543 100.656C116.724 100.699 116.916 100.72 117.119 100.72C117.428 100.72 117.652 100.661 117.791 100.544C117.94 100.437 118.015 100.283 118.015 100.08C118.015 99.888 117.94 99.7333 117.791 99.616C117.652 99.5093 117.423 99.456 117.103 99.456H116.671L117.071 97.888H117.951L117.711 98.8C118.169 98.8427 118.516 98.9867 118.751 99.232C118.985 99.4773 119.103 99.776 119.103 100.128C119.103 100.576 118.921 100.928 118.559 101.184C118.196 101.451 117.716 101.584 117.119 101.584ZM128.579 98V96.208L128.499 95.872V92.816C128.499 92.1653 128.307 91.664 127.923 91.312C127.55 90.9493 126.985 90.768 126.227 90.768C125.726 90.768 125.235 90.8533 124.755 91.024C124.275 91.184 123.87 91.4027 123.539 91.68L122.899 90.528C123.337 90.176 123.859 89.9093 124.467 89.728C125.086 89.536 125.731 89.44 126.403 89.44C127.566 89.44 128.462 89.7227 129.091 90.288C129.721 90.8533 130.035 91.7173 130.035 92.88V98H128.579ZM125.795 98.096C125.166 98.096 124.611 97.9893 124.131 97.776C123.662 97.5627 123.299 97.2693 123.043 96.896C122.787 96.512 122.659 96.08 122.659 95.6C122.659 95.1413 122.766 94.7253 122.979 94.352C123.203 93.9787 123.561 93.68 124.051 93.456C124.553 93.232 125.225 93.12 126.067 93.12H128.755V94.224H126.131C125.363 94.224 124.846 94.352 124.579 94.608C124.313 94.864 124.179 95.1733 124.179 95.536C124.179 95.952 124.345 96.288 124.675 96.544C125.006 96.7893 125.465 96.912 126.051 96.912C126.627 96.912 127.129 96.784 127.555 96.528C127.993 96.272 128.307 95.8987 128.499 95.408L128.803 96.464C128.601 96.9653 128.243 97.3653 127.731 97.664C127.219 97.952 126.574 98.096 125.795 98.096ZM127.635 88.24C127.379 88.24 127.15 88.1867 126.947 88.08C126.755 87.9733 126.579 87.8507 126.419 87.712C126.259 87.5627 126.105 87.4347 125.955 87.328C125.806 87.2213 125.657 87.168 125.507 87.168C125.273 87.168 125.081 87.2587 124.931 87.44C124.793 87.6107 124.713 87.8507 124.691 88.16H123.827C123.849 87.5627 123.998 87.088 124.275 86.736C124.553 86.384 124.926 86.208 125.395 86.208C125.651 86.208 125.881 86.2667 126.083 86.384C126.286 86.4907 126.467 86.6187 126.627 86.768C126.787 86.9067 126.937 87.0293 127.075 87.136C127.225 87.2427 127.374 87.296 127.523 87.296C127.758 87.296 127.95 87.2107 128.099 87.04C128.249 86.8693 128.329 86.6347 128.339 86.336H129.203C129.193 86.9013 129.043 87.36 128.755 87.712C128.478 88.064 128.105 88.24 127.635 88.24ZM136.51 98.096C135.657 98.096 134.899 97.9093 134.238 97.536C133.577 97.1627 133.054 96.6507 132.67 96C132.286 95.3387 132.094 94.592 132.094 93.76C132.094 92.9173 132.286 92.1707 132.67 91.52C133.054 90.8693 133.577 90.3627 134.238 90C134.899 89.6267 135.657 89.44 136.51 89.44C137.353 89.44 138.105 89.6267 138.766 90C139.438 90.3627 139.961 90.8693 140.334 91.52C140.718 92.16 140.91 92.9067 140.91 93.76C140.91 94.6027 140.718 95.3493 140.334 96C139.961 96.6507 139.438 97.1627 138.766 97.536C138.105 97.9093 137.353 98.096 136.51 98.096ZM136.51 96.752C137.054 96.752 137.539 96.6293 137.966 96.384C138.403 96.1387 138.745 95.792 138.99 95.344C139.235 94.8853 139.358 94.3573 139.358 93.76C139.358 93.152 139.235 92.6293 138.99 92.192C138.745 91.744 138.403 91.3973 137.966 91.152C137.539 90.9067 137.054 90.784 136.51 90.784C135.966 90.784 135.481 90.9067 135.054 91.152C134.627 91.3973 134.286 91.744 134.03 92.192C133.774 92.6293 133.646 93.152 133.646 93.76C133.646 94.3573 133.774 94.8853 134.03 95.344C134.286 95.792 134.627 96.1387 135.054 96.384C135.481 96.6293 135.966 96.752 136.51 96.752ZM147.555 98V86.8H152.579C153.87 86.8 154.862 87.0613 155.555 87.584C156.248 88.096 156.595 88.8 156.595 89.696C156.595 90.304 156.456 90.816 156.179 91.232C155.912 91.648 155.55 91.968 155.091 92.192C154.632 92.416 154.136 92.528 153.603 92.528L153.891 92.048C154.531 92.048 155.096 92.16 155.587 92.384C156.078 92.608 156.467 92.9387 156.755 93.376C157.043 93.8027 157.187 94.336 157.187 94.976C157.187 95.936 156.824 96.6827 156.099 97.216C155.384 97.7387 154.318 98 152.899 98H147.555ZM149.155 96.704H152.835C153.72 96.704 154.398 96.5547 154.867 96.256C155.336 95.9573 155.571 95.488 155.571 94.848C155.571 94.1973 155.336 93.7227 154.867 93.424C154.398 93.1253 153.72 92.976 152.835 92.976H149.011V91.68H152.435C153.246 91.68 153.875 91.5307 154.323 91.232C154.771 90.9333 154.995 90.4853 154.995 89.888C154.995 89.2907 154.771 88.8427 154.323 88.544C153.875 88.2453 153.246 88.096 152.435 88.096H149.155V96.704ZM164.704 98V96.208L164.624 95.872V92.816C164.624 92.1653 164.432 91.664 164.048 91.312C163.675 90.9493 163.11 90.768 162.352 90.768C161.851 90.768 161.36 90.8533 160.88 91.024C160.4 91.184 159.995 91.4027 159.664 91.68L159.024 90.528C159.462 90.176 159.984 89.9093 160.592 89.728C161.211 89.536 161.856 89.44 162.528 89.44C163.691 89.44 164.587 89.7227 165.216 90.288C165.846 90.8533 166.16 91.7173 166.16 92.88V98H164.704ZM161.92 98.096C161.291 98.096 160.736 97.9893 160.256 97.776C159.787 97.5627 159.424 97.2693 159.168 96.896C158.912 96.512 158.784 96.08 158.784 95.6C158.784 95.1413 158.891 94.7253 159.104 94.352C159.328 93.9787 159.686 93.68 160.176 93.456C160.678 93.232 161.35 93.12 162.192 93.12H164.88V94.224H162.256C161.488 94.224 160.971 94.352 160.704 94.608C160.438 94.864 160.304 95.1733 160.304 95.536C160.304 95.952 160.47 96.288 160.8 96.544C161.131 96.7893 161.59 96.912 162.176 96.912C162.752 96.912 163.254 96.784 163.68 96.528C164.118 96.272 164.432 95.8987 164.624 95.408L164.928 96.464C164.726 96.9653 164.368 97.3653 163.856 97.664C163.344 97.952 162.699 98.096 161.92 98.096ZM172.699 98.096C171.835 98.096 171.062 97.9093 170.379 97.536C169.707 97.1627 169.179 96.6507 168.795 96C168.411 95.3493 168.219 94.6027 168.219 93.76C168.219 92.9173 168.411 92.1707 168.795 91.52C169.179 90.8693 169.707 90.3627 170.379 90C171.062 89.6267 171.835 89.44 172.699 89.44C173.467 89.44 174.15 89.5947 174.747 89.904C175.355 90.2027 175.824 90.6507 176.155 91.248L174.987 92C174.71 91.584 174.368 91.28 173.963 91.088C173.568 90.8853 173.142 90.784 172.683 90.784C172.128 90.784 171.632 90.9067 171.195 91.152C170.758 91.3973 170.411 91.744 170.155 92.192C169.899 92.6293 169.771 93.152 169.771 93.76C169.771 94.368 169.899 94.896 170.155 95.344C170.411 95.792 170.758 96.1387 171.195 96.384C171.632 96.6293 172.128 96.752 172.683 96.752C173.142 96.752 173.568 96.656 173.963 96.464C174.368 96.2613 174.71 95.952 174.987 95.536L176.155 96.272C175.824 96.8587 175.355 97.312 174.747 97.632C174.15 97.9413 173.467 98.096 172.699 98.096ZM179.282 95.952L179.314 93.984L184.194 89.52H186.05L182.306 93.2L181.474 93.904L179.282 95.952ZM178.034 98V86.128H179.57V98H178.034ZM184.514 98L181.186 93.872L182.178 92.64L186.402 98H184.514ZM186.99 94.272V92.944H191.294V94.272H186.99ZM197.591 98.096C196.685 98.096 195.885 97.9093 195.191 97.536C194.509 97.1627 193.975 96.6507 193.591 96C193.218 95.3493 193.031 94.6027 193.031 93.76C193.031 92.9173 193.213 92.1707 193.575 91.52C193.949 90.8693 194.455 90.3627 195.095 90C195.746 89.6267 196.477 89.44 197.287 89.44C198.109 89.44 198.834 89.6213 199.463 89.984C200.093 90.3467 200.583 90.8587 200.935 91.52C201.298 92.1707 201.479 92.9333 201.479 93.808C201.479 93.872 201.474 93.9467 201.463 94.032C201.463 94.1173 201.458 94.1973 201.447 94.272H194.231V93.168H200.647L200.023 93.552C200.034 93.008 199.922 92.5227 199.687 92.096C199.453 91.6693 199.127 91.3387 198.711 91.104C198.306 90.8587 197.831 90.736 197.287 90.736C196.754 90.736 196.279 90.8587 195.863 91.104C195.447 91.3387 195.122 91.6747 194.887 92.112C194.653 92.5387 194.535 93.0293 194.535 93.584V93.84C194.535 94.4053 194.663 94.912 194.919 95.36C195.186 95.7973 195.554 96.1387 196.023 96.384C196.493 96.6293 197.031 96.752 197.639 96.752C198.141 96.752 198.594 96.6667 198.999 96.496C199.415 96.3253 199.778 96.0693 200.087 95.728L200.935 96.72C200.551 97.168 200.071 97.5093 199.495 97.744C198.93 97.9787 198.295 98.096 197.591 98.096ZM208.14 89.44C208.834 89.44 209.442 89.5733 209.964 89.84C210.498 90.1067 210.914 90.512 211.212 91.056C211.511 91.6 211.66 92.288 211.66 93.12V98H210.124V93.296C210.124 92.4747 209.922 91.856 209.516 91.44C209.122 91.024 208.562 90.816 207.836 90.816C207.292 90.816 206.818 90.9227 206.412 91.136C206.007 91.3493 205.692 91.664 205.468 92.08C205.255 92.496 205.148 93.0133 205.148 93.632V98H203.612V89.52H205.084V91.808L204.844 91.2C205.122 90.6453 205.548 90.2133 206.124 89.904C206.7 89.5947 207.372 89.44 208.14 89.44ZM218.007 98.096C217.186 98.096 216.45 97.9147 215.799 97.552C215.159 97.1893 214.652 96.6827 214.279 96.032C213.906 95.3813 213.719 94.624 213.719 93.76C213.719 92.896 213.906 92.144 214.279 91.504C214.652 90.8533 215.159 90.3467 215.799 89.984C216.45 89.6213 217.186 89.44 218.007 89.44C218.722 89.44 219.367 89.6 219.943 89.92C220.519 90.24 220.978 90.72 221.319 91.36C221.671 92 221.847 92.8 221.847 93.76C221.847 94.72 221.676 95.52 221.335 96.16C221.004 96.8 220.551 97.2853 219.975 97.616C219.399 97.936 218.743 98.096 218.007 98.096ZM218.135 96.752C218.668 96.752 219.148 96.6293 219.575 96.384C220.012 96.1387 220.354 95.792 220.599 95.344C220.855 94.8853 220.983 94.3573 220.983 93.76C220.983 93.152 220.855 92.6293 220.599 92.192C220.354 91.744 220.012 91.3973 219.575 91.152C219.148 90.9067 218.668 90.784 218.135 90.784C217.591 90.784 217.106 90.9067 216.679 91.152C216.252 91.3973 215.911 91.744 215.655 92.192C215.399 92.6293 215.271 93.152 215.271 93.76C215.271 94.3573 215.399 94.8853 215.655 95.344C215.911 95.792 216.252 96.1387 216.679 96.384C217.106 96.6293 217.591 96.752 218.135 96.752ZM221.031 98V95.712L221.127 93.744L220.967 91.776V86.128H222.503V98H221.031Z" fill="black" fill-opacity="0.8"/>
<path d="M20 30C25.5228 30 30 25.5228 30 20C30 14.4772 25.5228 10 20 10C14.4772 10 10 14.4772 10 20C10 25.5228 14.4772 30 20 30Z" stroke="#D6D3D1" stroke-width="1.5" stroke-linejoin="round"/>
</svg>
