<svg width="40" height="40" viewBox="0 0 40 40" fill="none" xmlns="http://www.w3.org/2000/svg">
<path d="M28.8661 22.164V22.7569H26.9248L24.8391 19.8319H24.6453L22.5772 22.7569H20.6817V22.164L23.4474 18.4748L20.9107 15.0963V14.507H22.8661L24.7052 17.0998H24.9025L26.7522 14.507H28.6336V15.0963L26.1004 18.4748L28.8661 22.164Z" fill="#131C50"/>
<path d="M19.4345 14.507V20.9641L17.6694 22.7569H13.5755L11.8068 20.9641V14.507H13.7868V20.2712L14.5197 21.0105H16.7252L17.4615 20.2712V14.507H19.4345Z" fill="#131C50"/>
<path d="M8.64298 5.21071H5V8.90352H8.64298V5.21071Z" fill="#131C50"/>
<path d="M8.64298 28.0497H5V31.7425H8.64298V28.0497Z" fill="#131C50"/>
<path d="M35 28.0497H31.357V31.7425H35V28.0497Z" fill="#131C50"/>
<path d="M35 5H31.357V8.6928H35V5Z" fill="#131C50"/>
<path d="M23.0141 34.7531L21.5097 28.9282C21.4357 28.639 21.7422 28.4068 21.9959 28.5604L27.2525 31.7853C27.5097 31.9425 27.4392 32.3389 27.1433 32.3925L24.744 32.8496C24.6453 32.8675 24.5573 32.9353 24.5114 33.0282L23.6271 34.8174C23.4932 35.0889 23.0951 35.0496 23.0176 34.7531H23.0141Z" fill="#131C50"/>
<path d="M32.1497 30.9532H8.52672C7.26541 30.9532 6.23664 29.9104 6.23664 28.6318V8.63209C6.23664 7.35354 7.26541 6.3107 8.52672 6.3107H32.1497C33.411 6.3107 34.4398 7.35354 34.4398 8.63209V28.6318C34.4398 29.9104 33.411 30.9532 32.1497 30.9532ZM8.52672 7.38211C7.84674 7.38211 7.2936 7.94282 7.2936 8.63209V28.6318C7.2936 29.3211 7.84674 29.8818 8.52672 29.8818H32.1497C32.8297 29.8818 33.3829 29.3211 33.3829 28.6318V8.63209C33.3829 7.94282 32.8297 7.38211 32.1497 7.38211H8.52672Z" fill="#131C50"/>
</svg>
